<svg width="19" height="32" viewBox="0 0 19 32" fill="none" xmlns="http://www.w3.org/2000/svg">
<path fill-rule="evenodd" clip-rule="evenodd" d="M18 11.4039C18 13.5706 17.4589 15.5826 16.533 17.2484L11.351 29.9115C10.6731 31.5682 8.32696 31.5682 7.649 29.9115L2.467 17.2485C1.54113 15.5826 1 13.5706 1 11.4039C1 5.65798 4.80558 1 9.5 1C14.1944 1 18 5.65798 18 11.4039ZM9.5 16.1897C11.8472 16.1897 13.75 13.8607 13.75 10.9877C13.75 8.11478 11.8472 5.78579 9.5 5.78579C7.15279 5.78579 5.25 8.11478 5.25 10.9877C5.25 13.8607 7.15279 16.1897 9.5 16.1897Z" fill="#A82330"/>
</svg>
