<svg width="37" height="73" viewBox="0 0 37 73" fill="none" xmlns="http://www.w3.org/2000/svg">
<path fill-rule="evenodd" clip-rule="evenodd" d="M27 11.4039C27 13.5706 26.4589 15.5826 25.533 17.2484L20.351 29.9115C19.6731 31.5682 17.327 31.5682 16.649 29.9115L11.467 17.2485C10.5411 15.5826 10 13.5706 10 11.4039C10 5.65798 13.8056 1 18.5 1C23.1944 1 27 5.65798 27 11.4039ZM18.5 16.1897C20.8472 16.1897 22.75 13.8607 22.75 10.9877C22.75 8.11478 20.8472 5.78579 18.5 5.78579C16.1528 5.78579 14.25 8.11478 14.25 10.9877C14.25 13.8607 16.1528 16.1897 18.5 16.1897Z" fill="#4B88FF"/>
</svg>
