<svg width="581" height="448" viewBox="0 0 581 448" fill="none" xmlns="http://www.w3.org/2000/svg">
<rect x="152" y="20" width="396" height="396" stroke="black" stroke-width="4"/>
<circle cx="320" cy="54" r="15" fill="#0500FF"/>
<circle cx="202" cy="105" r="15" fill="#F20000"/>
<circle cx="530" cy="242" r="15" fill="#00F218"/>
<circle cx="320" cy="376" r="15" fill="#F20000"/>
<circle cx="177" cy="319" r="15" fill="#0500FF"/>
<circle cx="237" cy="370" r="15" fill="#00F218"/>
<circle cx="505" cy="304" r="15" fill="#F20000"/>
<circle cx="290" cy="120" r="15" fill="#00F218"/>
<circle cx="459" cy="376" r="15" fill="#0500FF"/>
<circle cx="465" cy="84" r="15" fill="#00F218"/>
<circle cx="412" cy="247" r="15" fill="#0500FF"/>
<circle cx="465" cy="176" r="15" fill="#F20000"/>
<circle cx="252" cy="218" r="15" fill="#0500FF"/>
<circle cx="187" cy="232" r="15" fill="#00F218"/>
<circle cx="350" cy="154" r="15" fill="#F20000"/>
<circle cx="335" cy="289" r="15" fill="#F20000"/>
<path fill-rule="evenodd" clip-rule="evenodd" d="M109.914 246.887H36V196.113H109.914L150 181V262L109.914 246.887Z" fill="black"/>
<path fill-rule="evenodd" clip-rule="evenodd" d="M162 297.861C186.891 291.549 205.822 259.763 205.822 221.5C205.822 183.237 186.891 151.451 162 145.139C164.953 144.39 167.99 144 171.089 144C200.311 144 224 178.698 224 221.5C224 264.302 200.311 299 171.089 299C167.99 299 164.953 298.61 162 297.861Z" fill="#00F0FF" fill-opacity="0.61"/>
<path fill-rule="evenodd" clip-rule="evenodd" d="M162 297.861C186.891 291.549 205.822 259.763 205.822 221.5C205.822 183.237 186.891 151.451 162 145.139C164.953 144.39 167.99 144 171.089 144C200.311 144 224 178.698 224 221.5C224 264.302 200.311 299 171.089 299C167.99 299 164.953 298.61 162 297.861Z" fill="#00F0FF" fill-opacity="0.61"/>
<path fill-rule="evenodd" clip-rule="evenodd" d="M162 297.861C186.891 291.549 205.822 259.763 205.822 221.5C205.822 183.237 186.891 151.451 162 145.139C164.953 144.39 167.99 144 171.089 144C200.311 144 224 178.698 224 221.5C224 264.302 200.311 299 171.089 299C167.99 299 164.953 298.61 162 297.861Z" fill="#00F0FF" fill-opacity="0.61"/>
<path fill-rule="evenodd" clip-rule="evenodd" d="M402 396.347C435.322 381.647 460.665 307.615 460.665 218.5C460.665 129.385 435.322 55.3534 402 40.653C405.953 38.9089 410.019 38 414.168 38C453.287 38 485 118.813 485 218.5C485 318.187 453.287 399 414.168 399C410.019 399 405.953 398.091 402 396.347Z" fill="#00F0FF" fill-opacity="0.61"/>
<path fill-rule="evenodd" clip-rule="evenodd" d="M402 396.347C435.322 381.647 460.665 307.615 460.665 218.5C460.665 129.385 435.322 55.3534 402 40.653C405.953 38.9089 410.019 38 414.168 38C453.287 38 485 118.813 485 218.5C485 318.187 453.287 399 414.168 399C410.019 399 405.953 398.091 402 396.347Z" fill="#00F0FF" fill-opacity="0.61"/>
<path fill-rule="evenodd" clip-rule="evenodd" d="M402 396.347C435.322 381.647 460.665 307.615 460.665 218.5C460.665 129.385 435.322 55.3534 402 40.653C405.953 38.9089 410.019 38 414.168 38C453.287 38 485 118.813 485 218.5C485 318.187 453.287 399 414.168 399C410.019 399 405.953 398.091 402 396.347Z" fill="#00F0FF" fill-opacity="0.61"/>
<path fill-rule="evenodd" clip-rule="evenodd" d="M332 373.678C366.125 360.81 392.079 296.007 392.079 218C392.079 139.993 366.125 75.1902 332 62.3223C336.048 60.7956 340.212 60 344.461 60C384.523 60 417 130.739 417 218C417 305.261 384.523 376 344.461 376C340.212 376 336.048 375.204 332 373.678Z" fill="#00F0FF" fill-opacity="0.61"/>
<path fill-rule="evenodd" clip-rule="evenodd" d="M332 373.678C366.125 360.81 392.079 296.007 392.079 218C392.079 139.993 366.125 75.1902 332 62.3223C336.048 60.7956 340.212 60 344.461 60C384.523 60 417 130.739 417 218C417 305.261 384.523 376 344.461 376C340.212 376 336.048 375.204 332 373.678Z" fill="#00F0FF" fill-opacity="0.61"/>
<path fill-rule="evenodd" clip-rule="evenodd" d="M332 373.678C366.125 360.81 392.079 296.007 392.079 218C392.079 139.993 366.125 75.1902 332 62.3223C336.048 60.7956 340.212 60 344.461 60C384.523 60 417 130.739 417 218C417 305.261 384.523 376 344.461 376C340.212 376 336.048 375.204 332 373.678Z" fill="#00F0FF" fill-opacity="0.61"/>
<path fill-rule="evenodd" clip-rule="evenodd" d="M270 351.133C302.519 340.79 327.251 288.701 327.251 226C327.251 163.299 302.519 111.21 270 100.867C273.858 99.6395 277.825 99 281.874 99C320.051 99 351 155.86 351 226C351 296.14 320.051 353 281.874 353C277.825 353 273.858 352.36 270 351.133Z" fill="#00F0FF" fill-opacity="0.61"/>
<path fill-rule="evenodd" clip-rule="evenodd" d="M270 351.133C302.519 340.79 327.251 288.701 327.251 226C327.251 163.299 302.519 111.21 270 100.867C273.858 99.6395 277.825 99 281.874 99C320.051 99 351 155.86 351 226C351 296.14 320.051 353 281.874 353C277.825 353 273.858 352.36 270 351.133Z" fill="#00F0FF" fill-opacity="0.61"/>
<path fill-rule="evenodd" clip-rule="evenodd" d="M270 351.133C302.519 340.79 327.251 288.701 327.251 226C327.251 163.299 302.519 111.21 270 100.867C273.858 99.6395 277.825 99 281.874 99C320.051 99 351 155.86 351 226C351 296.14 320.051 353 281.874 353C277.825 353 273.858 352.36 270 351.133Z" fill="#00F0FF" fill-opacity="0.61"/>
<path fill-rule="evenodd" clip-rule="evenodd" d="M214 319.53C243.307 311.386 265.597 270.371 265.597 221C265.597 171.629 243.307 130.614 214 122.47C217.477 121.504 221.053 121 224.702 121C259.108 121 287 165.772 287 221C287 276.228 259.108 321 224.702 321C221.053 321 217.477 320.496 214 319.53Z" fill="#00F0FF" fill-opacity="0.61"/>
<path fill-rule="evenodd" clip-rule="evenodd" d="M214 319.53C243.307 311.386 265.597 270.371 265.597 221C265.597 171.629 243.307 130.614 214 122.47C217.477 121.504 221.053 121 224.702 121C259.108 121 287 165.772 287 221C287 276.228 259.108 321 224.702 321C221.053 321 217.477 320.496 214 319.53Z" fill="#00F0FF" fill-opacity="0.61"/>
<path fill-rule="evenodd" clip-rule="evenodd" d="M214 319.53C243.307 311.386 265.597 270.371 265.597 221C265.597 171.629 243.307 130.614 214 122.47C217.477 121.504 221.053 121 224.702 121C259.108 121 287 165.772 287 221C287 276.228 259.108 321 224.702 321C221.053 321 217.477 320.496 214 319.53Z" fill="#00F0FF" fill-opacity="0.61"/>
</svg>
