<svg width="100" height="100" viewBox="0 0 100 100" fill="none" xmlns="http://www.w3.org/2000/svg">
<mask id="path-2-inside-1" fill="white">
<path d="M73.7911 25.2505C73.4526 24.8988 73.4526 24.3279 73.7911 23.9762L78.6982 18.8771C79.0366 18.5254 79.5861 18.5254 79.9245 18.8771C80.263 19.2297 80.263 19.7997 79.9245 20.1523L75.0174 25.2505C74.679 25.6022 74.1295 25.6022 73.7911 25.2505Z"/>
</mask>
<path d="M73.7911 25.2505C73.4526 24.8988 73.4526 24.3279 73.7911 23.9762L78.6982 18.8771C79.0366 18.5254 79.5861 18.5254 79.9245 18.8771C80.263 19.2297 80.263 19.7997 79.9245 20.1523L75.0174 25.2505C74.679 25.6022 74.1295 25.6022 73.7911 25.2505Z" fill="white"/>
<path d="M79.9245 18.8771L81.3674 17.4921L81.3656 17.4903L79.9245 18.8771ZM79.9245 20.1523L81.3655 21.5393L81.3674 21.5373L79.9245 20.1523ZM75.0174 25.2505L73.5764 23.8636L73.5763 23.8637L75.0174 25.2505ZM75.2322 23.8637C75.6389 24.2864 75.6389 24.9403 75.2322 25.363L72.35 22.5894C71.2663 23.7155 71.2663 25.5113 72.35 26.6373L75.2322 23.8637ZM75.2322 25.363L80.1393 20.2639L77.2571 17.4903L72.35 22.5894L75.2322 25.363ZM80.1393 20.2639C79.6909 20.7298 78.9318 20.7298 78.4834 20.2639L81.3656 17.4903C80.2404 16.321 78.3823 16.321 77.2571 17.4903L80.1393 20.2639ZM78.4816 20.262C78.0773 19.8407 78.0773 19.1887 78.4816 18.7674L81.3674 21.5373C82.4487 20.4108 82.4487 18.6186 81.3674 17.4921L78.4816 20.262ZM78.4835 18.7654L73.5764 23.8636L76.4584 26.6375L81.3655 21.5393L78.4835 18.7654ZM73.5763 23.8637C74.0247 23.3978 74.7838 23.3978 75.2322 23.8637L72.35 26.6373C73.4752 27.8066 75.3333 27.8066 76.4585 26.6373L73.5763 23.8637Z" fill="white" mask="url(#path-2-inside-1)"/>
<mask id="path-4-inside-2" fill="white">
<path d="M95.5829 50.2108H84.2488C83.7697 50.2108 83.3811 49.807 83.3811 49.3092C83.3811 48.8113 83.7697 48.4085 84.2488 48.4085H95.5829C96.062 48.4085 96.4506 48.8113 96.4506 49.3092C96.4506 49.807 96.062 50.2108 95.5829 50.2108Z"/>
</mask>
<path d="M95.5829 50.2108H84.2488C83.7697 50.2108 83.3811 49.807 83.3811 49.3092C83.3811 48.8113 83.7697 48.4085 84.2488 48.4085H95.5829C96.062 48.4085 96.4506 48.8113 96.4506 49.3092C96.4506 49.807 96.062 50.2108 95.5829 50.2108Z" fill="white"/>
<path d="M95.5829 48.2108H84.2488V52.2108H95.5829V48.2108ZM84.2488 48.2108C84.9459 48.2108 85.3811 48.7755 85.3811 49.3092H81.3811C81.3811 50.8386 82.5934 52.2108 84.2488 52.2108V48.2108ZM85.3811 49.3092C85.3811 49.8455 84.9433 50.4085 84.2488 50.4085V46.4085C82.596 46.4085 81.3811 47.7771 81.3811 49.3092H85.3811ZM84.2488 50.4085H95.5829V46.4085H84.2488V50.4085ZM95.5829 50.4085C94.8884 50.4085 94.4506 49.8455 94.4506 49.3092H98.4506C98.4506 47.7771 97.2357 46.4085 95.5829 46.4085V50.4085ZM94.4506 49.3092C94.4506 48.7755 94.8858 48.2108 95.5829 48.2108V52.2108C97.2382 52.2108 98.4506 50.8386 98.4506 49.3092H94.4506Z" fill="white" mask="url(#path-4-inside-2)"/>
<mask id="path-6-inside-3" fill="white">
<path d="M50.6384 96.9141C50.1593 96.9141 49.7708 96.5103 49.7708 96.0124V84.2348C49.7708 83.7369 50.1593 83.3332 50.6384 83.3332C51.1176 83.3332 51.5061 83.7369 51.5061 84.2348V96.0124C51.5052 96.5112 51.1176 96.9141 50.6384 96.9141Z"/>
</mask>
<path d="M50.6384 96.9141C50.1593 96.9141 49.7708 96.5103 49.7708 96.0124V84.2348C49.7708 83.7369 50.1593 83.3332 50.6384 83.3332C51.1176 83.3332 51.5061 83.7369 51.5061 84.2348V96.0124C51.5052 96.5112 51.1176 96.9141 50.6384 96.9141Z" fill="white"/>
<path d="M51.5061 96.0124L55.5061 96.0195V96.0124H51.5061ZM50.6384 92.9141C52.5118 92.9141 53.7708 94.4473 53.7708 96.0124H45.7708C45.7708 98.5733 47.8069 100.914 50.6384 100.914V92.9141ZM53.7708 96.0124V84.2348H45.7708V96.0124H53.7708ZM53.7708 84.2348C53.7708 85.8 52.5118 87.3332 50.6384 87.3332V79.3332C47.8069 79.3332 45.7708 81.6739 45.7708 84.2348H53.7708ZM50.6384 87.3332C48.7651 87.3332 47.5061 85.8 47.5061 84.2348H55.5061C55.5061 81.6739 53.47 79.3332 50.6384 79.3332V87.3332ZM47.5061 84.2348V96.0124H55.5061V84.2348H47.5061ZM47.5061 96.0054C47.5089 94.4505 48.7615 92.9141 50.6384 92.9141V100.914C53.4736 100.914 55.5016 98.5719 55.5061 96.0195L47.5061 96.0054Z" fill="white" mask="url(#path-6-inside-3)"/>
<path d="M17 48.8369L17 48.8369L17 48.8369Z" fill="white" stroke="white" stroke-width="2"/>
<mask id="path-9-inside-4" fill="white">
<path d="M50.6384 15.2852C50.1593 15.2852 49.7708 14.8815 49.7708 14.3836V2.60505C49.7708 2.10719 50.1593 1.70343 50.6384 1.70343C51.1176 1.70343 51.5061 2.10719 51.5061 2.60505V14.3827C51.5052 14.8806 51.1176 15.2852 50.6384 15.2852Z"/>
</mask>
<path d="M50.6384 15.2852C50.1593 15.2852 49.7708 14.8815 49.7708 14.3836V2.60505C49.7708 2.10719 50.1593 1.70343 50.6384 1.70343C51.1176 1.70343 51.5061 2.10719 51.5061 2.60505V14.3827C51.5052 14.8806 51.1176 15.2852 50.6384 15.2852Z" fill="white"/>
<path d="M51.5061 14.3827L53.5061 14.3862V14.3827H51.5061ZM50.6384 13.2852C51.3356 13.2852 51.7708 13.85 51.7708 14.3836H47.7708C47.7708 15.913 48.9831 17.2852 50.6384 17.2852V13.2852ZM51.7708 14.3836V2.60505H47.7708V14.3836H51.7708ZM51.7708 2.60505C51.7708 3.13871 51.3356 3.70343 50.6384 3.70343V-0.29657C48.9831 -0.29657 47.7708 1.07568 47.7708 2.60505H51.7708ZM50.6384 3.70343C49.9413 3.70343 49.5061 3.13871 49.5061 2.60505H53.5061C53.5061 1.07568 52.2938 -0.29657 50.6384 -0.29657V3.70343ZM49.5061 2.60505V14.3827H53.5061V2.60505H49.5061ZM49.5061 14.3792C49.507 13.8543 49.9356 13.2852 50.6384 13.2852V17.2852C52.2995 17.2852 53.5034 15.9069 53.5061 14.3862L49.5061 14.3792Z" fill="white" mask="url(#path-9-inside-4)"/>
<mask id="path-11-inside-5" fill="white">
<path d="M78.6982 79.7422L73.7911 74.6431C73.4526 74.2914 73.4526 73.7205 73.7911 73.3688C74.1295 73.0171 74.679 73.0171 75.0174 73.3688L79.9245 78.4679C80.263 78.8196 80.263 79.3905 79.9245 79.7422C79.5861 80.093 79.0366 80.093 78.6982 79.7422Z"/>
</mask>
<path d="M78.6982 79.7422L73.7911 74.6431C73.4526 74.2914 73.4526 73.7205 73.7911 73.3688C74.1295 73.0171 74.679 73.0171 75.0174 73.3688L79.9245 78.4679C80.263 78.8196 80.263 79.3905 79.9245 79.7422C79.5861 80.093 79.0366 80.093 78.6982 79.7422Z" fill="white"/>
<path d="M78.6982 79.7422L77.2571 81.129L77.2589 81.1309L78.6982 79.7422ZM73.7911 74.6431L75.2322 73.2563L73.7911 74.6431ZM75.0174 73.3688L73.5763 74.7556L73.5763 74.7556L75.0174 73.3688ZM79.9245 78.4679L81.3656 77.0811L81.3656 77.0811L79.9245 78.4679ZM79.9245 79.7422L81.3638 81.1309L81.3656 81.129L79.9245 79.7422ZM80.1393 78.3554L75.2322 73.2563L72.35 76.0299L77.2571 81.129L80.1393 78.3554ZM75.2322 73.2563C75.6389 73.679 75.6389 74.3329 75.2322 74.7556L72.35 71.982C71.2663 73.108 71.2663 74.9038 72.35 76.0299L75.2322 73.2563ZM75.2322 74.7556C74.7838 75.2215 74.0247 75.2215 73.5763 74.7556L76.4585 71.982C75.3333 70.8127 73.4752 70.8127 72.35 71.982L75.2322 74.7556ZM73.5763 74.7556L78.4834 79.8547L81.3656 77.0811L76.4585 71.982L73.5763 74.7556ZM78.4834 79.8547C78.0767 79.432 78.0767 78.7781 78.4834 78.3554L81.3656 81.129C82.4493 80.003 82.4493 78.2072 81.3656 77.0811L78.4834 79.8547ZM78.4852 78.3535C78.9332 77.8892 79.6895 77.8892 80.1375 78.3535L77.2589 81.1309C78.3838 82.2968 80.2389 82.2968 81.3638 81.1309L78.4852 78.3535Z" fill="white" mask="url(#path-11-inside-5)"/>
<mask id="path-13-inside-6" fill="white">
<path d="M21.3524 79.7422C21.0139 79.3905 21.0139 78.8196 21.3524 78.4679L26.2595 73.3688C26.5979 73.0171 27.1473 73.0171 27.4858 73.3688C27.8242 73.7205 27.8242 74.2914 27.4858 74.6431L22.5787 79.7422C22.2394 80.093 21.6899 80.093 21.3524 79.7422Z"/>
</mask>
<path d="M21.3524 79.7422C21.0139 79.3905 21.0139 78.8196 21.3524 78.4679L26.2595 73.3688C26.5979 73.0171 27.1473 73.0171 27.4858 73.3688C27.8242 73.7205 27.8242 74.2914 27.4858 74.6431L22.5787 79.7422C22.2394 80.093 21.6899 80.093 21.3524 79.7422Z" fill="white"/>
<path d="M21.3524 78.4679L19.9113 77.0811L19.9113 77.0811L21.3524 78.4679ZM26.2595 73.3688L27.7006 74.7556L27.7006 74.7556L26.2595 73.3688ZM27.4858 74.6431L28.9269 76.0299L27.4858 74.6431ZM22.5787 79.7422L24.0162 81.1328L24.0198 81.129L22.5787 79.7422ZM22.7935 78.3554C23.2002 78.7781 23.2002 79.432 22.7935 79.8547L19.9113 77.0811C18.8276 78.2072 18.8276 80.003 19.9113 81.129L22.7935 78.3554ZM22.7935 79.8547L27.7006 74.7556L24.8184 71.982L19.9113 77.0811L22.7935 79.8547ZM27.7006 74.7556C27.2522 75.2215 26.493 75.2215 26.0447 74.7556L28.9269 71.982C27.8016 70.8127 25.9436 70.8127 24.8184 71.982L27.7006 74.7556ZM26.0447 74.7556C25.6379 74.3329 25.6379 73.679 26.0447 73.2563L28.9269 76.0299C30.0105 74.9038 30.0105 73.108 28.9269 71.982L26.0447 74.7556ZM26.0447 73.2563L21.1376 78.3554L24.0198 81.129L28.9269 76.0299L26.0447 73.2563ZM21.1412 78.3517C21.5859 77.892 22.3422 77.8865 22.7935 78.3554L19.9113 81.129C21.0377 82.2995 22.8928 82.294 24.0162 81.1328L21.1412 78.3517Z" fill="white" mask="url(#path-13-inside-6)"/>
<mask id="path-15-inside-7" fill="white">
<path d="M26.2586 25.2505L21.3515 20.1523C21.013 19.7997 21.013 19.2297 21.3515 18.8771C21.6899 18.5254 22.2394 18.5254 22.5778 18.8771L27.4849 23.9762C27.8234 24.3279 27.8234 24.8988 27.4849 25.2505C27.1473 25.6022 26.5979 25.6022 26.2586 25.2505Z"/>
</mask>
<path d="M26.2586 25.2505L21.3515 20.1523C21.013 19.7997 21.013 19.2297 21.3515 18.8771C21.6899 18.5254 22.2394 18.5254 22.5778 18.8771L27.4849 23.9762C27.8234 24.3279 27.8234 24.8988 27.4849 25.2505C27.1473 25.6022 26.5979 25.6022 26.2586 25.2505Z" fill="white"/>
<path d="M26.2586 25.2505L24.8176 26.6375L24.8193 26.6392L26.2586 25.2505ZM21.3515 20.1523L19.9086 21.5373L19.9105 21.5393L21.3515 20.1523ZM21.3515 18.8771L19.9104 17.4903L19.9086 17.4921L21.3515 18.8771ZM22.5778 18.8771L21.1367 20.2639L22.5778 18.8771ZM27.4849 23.9762L28.926 22.5894L27.4849 23.9762ZM27.4849 25.2505L26.0438 23.8637L26.042 23.8656L27.4849 25.2505ZM27.6995 23.8636L22.7925 18.7654L19.9105 21.5393L24.8176 26.6375L27.6995 23.8636ZM22.7944 18.7674C23.1987 19.1887 23.1987 19.8407 22.7944 20.262L19.9086 17.4921C18.8273 18.6186 18.8273 20.4108 19.9086 21.5373L22.7944 18.7674ZM22.7926 20.2639C22.3442 20.7298 21.5851 20.7298 21.1367 20.2639L24.0189 17.4903C22.8937 16.321 21.0356 16.321 19.9104 17.4903L22.7926 20.2639ZM21.1367 20.2639L26.0438 25.363L28.926 22.5894L24.0189 17.4903L21.1367 20.2639ZM26.0438 25.363C25.6371 24.9403 25.6371 24.2864 26.0438 23.8637L28.926 26.6373C30.0097 25.5113 30.0097 23.7155 28.926 22.5894L26.0438 25.363ZM26.042 23.8656C26.4936 23.3951 27.2528 23.4006 27.6979 23.8618L24.8193 26.6392C25.943 27.8039 27.801 27.8094 28.9278 26.6355L26.042 23.8656Z" fill="white" mask="url(#path-15-inside-7)"/>
<mask id="path-17-inside-8" fill="white">
<path d="M67.539 31.3087C58.0088 21.9653 42.7617 21.5849 32.7503 30.1411L33.8797 31.2493C38.3562 27.4594 43.9191 25.5384 49.497 25.5384C55.6269 25.5384 61.7578 27.8251 66.4245 32.4013C75.758 41.5518 75.758 56.4414 66.4245 65.5929C57.0902 74.7443 41.9038 74.7433 32.5694 65.5929C23.6743 56.8712 23.2863 42.9553 31.3458 33.7444L30.2137 32.6345C21.5377 42.4506 21.9434 57.3603 31.4549 66.6855C36.4294 71.5615 42.9632 74 49.497 74C56.0307 74 62.5645 71.5615 67.539 66.6855C77.487 56.9315 77.487 41.0617 67.539 31.3087Z"/>
</mask>
<path d="M67.539 31.3087C58.0088 21.9653 42.7617 21.5849 32.7503 30.1411L33.8797 31.2493C38.3562 27.4594 43.9191 25.5384 49.497 25.5384C55.6269 25.5384 61.7578 27.8251 66.4245 32.4013C75.758 41.5518 75.758 56.4414 66.4245 65.5929C57.0902 74.7443 41.9038 74.7433 32.5694 65.5929C23.6743 56.8712 23.2863 42.9553 31.3458 33.7444L30.2137 32.6345C21.5377 42.4506 21.9434 57.3603 31.4549 66.6855C36.4294 71.5615 42.9632 74 49.497 74C56.0307 74 62.5645 71.5615 67.539 66.6855C77.487 56.9315 77.487 41.0617 67.539 31.3087Z" fill="white"/>
<path d="M32.7503 30.1411L31.4509 28.6207L29.791 30.0394L31.3496 31.5687L32.7503 30.1411ZM33.8797 31.2493L32.479 32.6768L33.7804 33.9538L35.172 32.7757L33.8797 31.2493ZM66.4245 32.4013L65.0243 33.8293L65.0244 33.8294L66.4245 32.4013ZM66.4245 65.5929L67.8247 67.021L67.8248 67.0209L66.4245 65.5929ZM32.5694 65.5929L31.1692 67.0209L31.1693 67.0211L32.5694 65.5929ZM31.3458 33.7444L32.851 35.0614L34.0954 33.6393L32.746 32.3163L31.3458 33.7444ZM30.2137 32.6345L31.6138 31.2063L30.1099 29.7319L28.7151 31.31L30.2137 32.6345ZM31.4549 66.6855L30.0548 68.1136L30.0549 68.1137L31.4549 66.6855ZM67.539 66.6855L68.939 68.1137L68.9392 68.1135L67.539 66.6855ZM68.9391 29.8805C58.6606 19.8034 42.2413 19.3988 31.4509 28.6207L34.0497 31.6615C43.2822 23.771 57.357 24.1271 66.1388 32.7368L68.9391 29.8805ZM31.3496 31.5687L32.479 32.6768L35.2804 29.8217L34.1511 28.7135L31.3496 31.5687ZM35.172 32.7757C39.2756 29.3015 44.3768 27.5384 49.497 27.5384V23.5384C43.4614 23.5384 37.4367 25.6173 32.5874 29.7228L35.172 32.7757ZM49.497 27.5384C55.1326 27.5384 60.7518 29.6398 65.0243 33.8293L67.8248 30.9733C62.7638 26.0105 56.1213 23.5384 49.497 23.5384V27.5384ZM65.0244 33.8294C73.558 42.1958 73.5581 55.7975 65.0243 64.1648L67.8248 67.0209C77.9579 57.0854 77.958 40.9078 67.8247 30.9732L65.0244 33.8294ZM65.0244 64.1647C56.4678 72.5535 42.5262 72.5528 33.9695 64.1646L31.1693 67.0211C41.2813 76.9339 57.7125 76.935 67.8247 67.021L65.0244 64.1647ZM33.9696 64.1648C25.8396 56.1933 25.4826 43.4825 32.851 35.0614L29.8407 32.4274C21.0901 42.4281 21.5089 57.5491 31.1692 67.0209L33.9696 64.1648ZM32.746 32.3163L31.6138 31.2063L28.8135 34.0626L29.9457 35.1726L32.746 32.3163ZM28.7151 31.31C19.3394 41.9178 19.7776 58.0379 30.0548 68.1136L32.8551 65.2573C24.1091 56.6828 23.736 42.9833 31.7122 33.959L28.7151 31.31ZM30.0549 68.1137C35.4234 73.376 42.4686 76 49.497 76V72C43.4578 72 37.4354 69.747 32.855 65.2572L30.0549 68.1137ZM49.497 76C56.5254 76 63.5705 73.376 68.939 68.1137L66.139 65.2572C61.5585 69.747 55.5361 72 49.497 72V76ZM68.9392 68.1135C79.6869 57.5755 79.687 40.4177 68.9391 29.8805L66.1388 32.7368C75.287 41.7057 75.2871 56.2875 66.1388 65.2574L68.9392 68.1135Z" fill="white" mask="url(#path-17-inside-8)"/>
</svg>
