<svg width="100" height="100" viewBox="0 0 100 100" fill="none" xmlns="http://www.w3.org/2000/svg">
<path d="M51.429 22.1678C51.0906 22.06 50.7178 22.1778 50.4937 22.4656C50.2686 22.7533 50.2325 23.1525 50.4031 23.4786C52.2281 26.9718 53.1925 30.9327 53.1925 34.9338C53.1925 36.6028 53.0272 38.2325 52.7142 39.8064L54.2579 40.9748C54.7063 39.0354 54.9507 37.0139 54.9507 34.9338C54.9507 31.3895 54.2465 27.8725 52.9015 24.6415C61.521 28.2745 67.381 37.1518 67.381 46.9435C67.381 60.2047 56.9981 70.9931 44.2372 70.9931C36.4431 70.9931 29.2364 66.9335 24.9648 60.2668C26.6342 60.6277 28.337 60.8104 30.0486 60.8104C40.5107 60.8104 49.4792 54.0688 53.1608 44.5493L51.6928 43.4385C48.3786 52.5131 39.9287 58.9834 30.0486 58.9834C27.7823 58.9834 25.5319 58.639 23.3623 57.9603C23.0221 57.8525 22.651 57.9694 22.4277 58.2581C22.2027 58.5449 22.1667 58.945 22.3363 59.2702C26.7019 67.6287 35.0937 72.8201 44.2363 72.8201C57.9677 72.8201 69.1383 61.2123 69.1383 46.9435C69.1392 35.6208 61.8568 25.4335 51.429 22.1678Z" fill="white"/>
</svg>
