<svg width="100" height="100" viewBox="0 0 100 100" fill="none" xmlns="http://www.w3.org/2000/svg">
<path d="M51.2235 52.6176L39.8657 71.4666C39.7523 71.6392 39.8753 71.8722 40.0766 71.8639L48.4992 71.4784C48.6777 71.4702 48.8043 71.6575 48.7366 71.8292L43.3812 87.3824C43.2695 87.6628 43.6387 87.8729 43.8066 87.6244L56.128 67.3522C56.2423 67.1841 56.1262 66.953 55.9284 66.953H47.9419C47.7801 66.953 47.6641 66.795 47.7063 66.6342L51.6595 52.8277C51.7308 52.5509 51.3791 52.3837 51.2235 52.6176Z" stroke="white" stroke-width="2" stroke-miterlimit="10"/>
<path d="M68.4616 32.2312C67.4577 23.6087 60.3046 16.9585 51.8714 16.9585C48.9581 16.9585 46.0756 17.7632 43.5359 19.2869C43.0796 19.5592 42.6383 19.8524 42.2251 20.1575C37.798 23.4168 35.1546 29.5254 35.1546 35.1397C35.1546 35.1653 35.1564 35.1397 35.1573 35.1653L36.715 35.1397C36.715 30.0506 39.1123 24.4363 43.1271 21.4802C43.5016 21.2044 43.9007 20.9386 44.3156 20.691C46.618 19.3098 49.2315 18.5799 51.8714 18.5799C59.7331 18.5799 66.3676 24.9543 66.976 33.0916L67.0718 33.8654L67.8146 33.838C76.028 33.8416 82.964 41.3286 82.964 50.1904C82.964 59.055 76.0236 66.5419 67.8085 66.5419C64.3598 66.5419 61.7964 65.5636 59.5617 63.8508L59.3244 64.0408L58.4453 64.831C61.043 67.0106 64.2631 68.1634 67.8076 68.1634C76.8684 68.1634 84.5244 59.9328 84.5244 50.1895C84.5244 40.6828 77.235 32.6148 68.4616 32.2312Z" fill="white"/>
<path d="M37.7277 62.4888C35.0456 65.1489 31.5609 66.552 27.6524 66.552C19.2949 66.552 12.496 59.5254 12.496 50.892C12.496 48.474 13.0261 46.1318 14.0713 43.9321C14.2577 43.5402 14.4634 43.1502 14.6832 42.772C17.4602 37.9926 22.166 35.1397 27.51 35.1397C28.8102 35.1397 30.3143 35.3206 31.1934 35.6577V33.9805C30.3143 33.6754 28.8067 33.5183 27.51 33.5183C21.6148 33.5183 16.3385 36.6644 13.2766 41.9334C13.034 42.3508 12.8424 42.782 12.6376 43.2141C11.4851 45.6376 10.918 48.22 10.918 50.8893C10.918 60.4179 18.4264 68.1707 27.6436 68.1707C31.6892 68.1707 35.3331 66.7986 38.2262 64.197L37.7277 62.4888Z" fill="white"/>
</svg>
