<svg width="146" height="160" viewBox="0 0 146 160" fill="none" xmlns="http://www.w3.org/2000/svg">
<path fill-rule="evenodd" clip-rule="evenodd" d="M90 50C90 72.0914 72.0914 90 50 90C27.9086 90 10 72.0914 10 50C10 27.9086 27.9086 10 50 10C72.0914 10 90 27.9086 90 50ZM79.6662 90.2522C71.3675 96.3786 61.1067 100 50 100C22.3858 100 0 77.6142 0 50C0 22.3858 22.3858 0 50 0C77.6142 0 100 22.3858 100 50C100 62.9043 95.1115 74.6669 87.0853 83.5368L145.711 153.404L138.05 159.832L79.6662 90.2522Z" fill="#C4C4C4"/>
</svg>
