<svg width="236" height="147" viewBox="0 0 236 147" fill="none" xmlns="http://www.w3.org/2000/svg">
<path d="M39.1213 25.8787C37.9497 24.7071 36.0503 24.7071 34.8787 25.8787L15.7868 44.9706C14.6152 46.1421 14.6152 48.0416 15.7868 49.2132C16.9584 50.3848 18.8579 50.3848 20.0294 49.2132L37 32.2426L53.9706 49.2132C55.1421 50.3848 57.0416 50.3848 58.2132 49.2132C59.3848 48.0416 59.3848 46.1421 58.2132 44.9706L39.1213 25.8787ZM40 83V28H34V83H40Z" fill="#0049D6"/>
<path d="M216.105 83.1286C217.286 81.9664 217.301 80.0669 216.139 78.8861L197.202 59.6436C196.04 58.4628 194.14 58.4477 192.959 59.61C191.778 60.7722 191.763 62.6716 192.925 63.8525L209.758 80.9569L192.651 97.7925C191.47 98.9547 191.455 100.854 192.617 102.035C193.779 103.216 195.679 103.231 196.86 102.069L216.105 83.1286ZM88.9758 82.9999L213.976 83.9905L214.025 77.9907L89.0242 77.0001L88.9758 82.9999Z" fill="#0049D6"/>
<line x1="36" y1="80.5" x2="73" y2="80.5" stroke="black" stroke-width="5"/>
<path d="M68.8764 134.591C70.0467 135.764 71.9462 135.766 73.1191 134.595L92.2313 115.523C93.4041 114.353 93.4061 112.453 92.2358 111.281C91.0655 110.108 89.166 110.106 87.9932 111.276L71.0045 128.229L54.0521 111.241C52.8817 110.068 50.9822 110.066 49.8094 111.236C48.6366 112.407 48.6346 114.306 49.8049 115.479L68.8764 134.591ZM68.0591 76.9969L68 132.469L74 132.475L74.0591 77.0031L68.0591 76.9969Z" fill="#0049D6"/>
<line x1="36" y1="80" x2="73" y2="80" stroke="#0049D6" stroke-width="6"/>
<path d="M71.7245 93.3726L90.5 79" stroke="#0049D6" stroke-width="5"/>
<path d="M99.5312 65.5859C99.3203 67.3906 98.6523 68.7852 97.5273 69.7695C96.4102 70.7461 94.9219 71.2344 93.0625 71.2344C91.0469 71.2344 89.4297 70.5117 88.2109 69.0664C87 67.6211 86.3945 65.6875 86.3945 63.2656V61.625C86.3945 60.0391 86.6758 58.6445 87.2383 57.4414C87.8086 56.2383 88.6133 55.3164 89.6523 54.6758C90.6914 54.0273 91.8945 53.7031 93.2617 53.7031C95.0742 53.7031 96.5273 54.2109 97.6211 55.2266C98.7148 56.2344 99.3516 57.6328 99.5312 59.4219H97.2695C97.0742 58.0625 96.6484 57.0781 95.9922 56.4688C95.3438 55.8594 94.4336 55.5547 93.2617 55.5547C91.8242 55.5547 90.6953 56.0859 89.875 57.1484C89.0625 58.2109 88.6562 59.7227 88.6562 61.6836V63.3359C88.6562 65.1875 89.043 66.6602 89.8164 67.7539C90.5898 68.8477 91.6719 69.3945 93.0625 69.3945C94.3125 69.3945 95.2695 69.1133 95.9336 68.5508C96.6055 67.9805 97.0508 66.9922 97.2695 65.5859H99.5312ZM112.035 66.5469H104.887L103.281 71H100.961L107.477 53.9375H109.445L115.973 71H113.664L112.035 66.5469ZM105.566 64.6953H111.367L108.461 56.7148L105.566 64.6953ZM131.383 71H129.121L120.531 57.8516V71H118.27V53.9375H120.531L129.145 67.1445V53.9375H131.383V71ZM141.332 71V53.9375H146.91C148.762 53.9375 150.152 54.3203 151.082 55.0859C152.02 55.8516 152.488 56.9844 152.488 58.4844C152.488 59.2812 152.262 59.9883 151.809 60.6055C151.355 61.2148 150.738 61.6875 149.957 62.0234C150.879 62.2812 151.605 62.7734 152.137 63.5C152.676 64.2188 152.945 65.0781 152.945 66.0781C152.945 67.6094 152.449 68.8125 151.457 69.6875C150.465 70.5625 149.062 71 147.25 71H141.332ZM143.582 63.0195V69.1602H147.297C148.344 69.1602 149.168 68.8906 149.77 68.3516C150.379 67.8047 150.684 67.0547 150.684 66.1016C150.684 64.0469 149.566 63.0195 147.332 63.0195H143.582ZM143.582 61.2148H146.98C147.965 61.2148 148.75 60.9688 149.336 60.4766C149.93 59.9844 150.227 59.3164 150.227 58.4727C150.227 57.5352 149.953 56.8555 149.406 56.4336C148.859 56.0039 148.027 55.7891 146.91 55.7891H143.582V61.2148ZM168.297 53.9375V65.5391C168.289 67.1484 167.781 68.4648 166.773 69.4883C165.773 70.5117 164.414 71.0859 162.695 71.2109L162.098 71.2344C160.23 71.2344 158.742 70.7305 157.633 69.7227C156.523 68.7148 155.961 67.3281 155.945 65.5625V53.9375H158.172V65.4922C158.172 66.7266 158.512 67.6875 159.191 68.375C159.871 69.0547 160.84 69.3945 162.098 69.3945C163.371 69.3945 164.344 69.0547 165.016 68.375C165.695 67.6953 166.035 66.7383 166.035 65.5039V53.9375H168.297ZM176.875 63.3945C174.945 62.8398 173.539 62.1602 172.656 61.3555C171.781 60.543 171.344 59.543 171.344 58.3555C171.344 57.0117 171.879 55.9023 172.949 55.0273C174.027 54.1445 175.426 53.7031 177.145 53.7031C178.316 53.7031 179.359 53.9297 180.273 54.3828C181.195 54.8359 181.906 55.4609 182.406 56.2578C182.914 57.0547 183.168 57.9258 183.168 58.8711H180.906C180.906 57.8398 180.578 57.0312 179.922 56.4453C179.266 55.8516 178.34 55.5547 177.145 55.5547C176.035 55.5547 175.168 55.8008 174.543 56.293C173.926 56.7773 173.617 57.4531 173.617 58.3203C173.617 59.0156 173.91 59.6055 174.496 60.0898C175.09 60.5664 176.094 61.0039 177.508 61.4023C178.93 61.8008 180.039 62.2422 180.836 62.7266C181.641 63.2031 182.234 63.7617 182.617 64.4023C183.008 65.043 183.203 65.7969 183.203 66.6641C183.203 68.0469 182.664 69.1562 181.586 69.9922C180.508 70.8203 179.066 71.2344 177.262 71.2344C176.09 71.2344 174.996 71.0117 173.98 70.5664C172.965 70.1133 172.18 69.4961 171.625 68.7148C171.078 67.9336 170.805 67.0469 170.805 66.0547H173.066C173.066 67.0859 173.445 67.9023 174.203 68.5039C174.969 69.0977 175.988 69.3945 177.262 69.3945C178.449 69.3945 179.359 69.1523 179.992 68.668C180.625 68.1836 180.941 67.5234 180.941 66.6875C180.941 65.8516 180.648 65.207 180.062 64.7539C179.477 64.293 178.414 63.8398 176.875 63.3945Z" fill="#4B4B4B"/>
</svg>
