<svg width="100" height="100" viewBox="0 0 100 100" fill="none" xmlns="http://www.w3.org/2000/svg">
<path d="M37.7127 40.6317C37.7127 35.327 40.2111 29.4761 44.3964 26.3949C44.7867 26.1071 45.2035 25.8303 45.6342 25.5718C48.035 24.1321 50.7584 23.3721 53.5091 23.3721C61.7031 23.3721 68.6189 30.0159 69.2528 38.4968L69.353 39.3034L70.1266 39.2751C78.6872 39.2788 85.9159 47.0818 85.9159 56.3182C85.9159 65.5563 78.6819 73.3621 70.1196 73.3621C66.525 73.3621 63.42 72.3116 60.89 69.9731L60.6588 69.8945H59.8342L59.5282 70.005C57.9652 71.2656 54.7117 73.8207 49.5444 73.8207C45.7502 73.8207 43.1358 72.5382 39.9034 69.1783L39.3417 68.5781L38.7667 69.139C35.9712 71.9115 32.3388 73.3722 28.2669 73.3722C19.556 73.3722 12.4696 66.0487 12.4696 57.049C12.4696 54.5286 13.0225 52.0877 14.1117 49.7967C14.306 49.3884 14.5197 48.981 14.7491 48.5864C17.6431 43.606 22.6398 40.6317 28.2098 40.6317C29.5653 40.6317 31.2611 40.8208 32.1402 41.1715V39.4231C31.2611 39.1061 29.5609 38.9417 28.2098 38.9417C22.0658 38.9417 16.5204 42.2211 13.3285 47.7121C13.0762 48.147 12.8538 48.5964 12.6402 49.0467C11.4393 51.5735 10.8363 54.2646 10.8363 57.0471C10.8363 66.9777 18.6567 75.0585 28.2625 75.0585C32.4874 75.0585 36.2895 73.6243 39.3083 70.903C42.6093 74.1587 45.5366 75.4421 49.5444 75.4421C54.9367 75.4421 58.4004 72.9026 60.2104 71.4584C62.9435 73.8115 66.3579 75.0511 70.1196 75.0511C79.5636 75.0511 87.5414 66.4726 87.5414 56.3182C87.5414 46.4086 79.9434 37.9999 70.8 37.5998C69.7547 28.6137 62.2982 21.6822 53.5082 21.6822C50.4718 21.6822 47.468 22.5208 44.8211 24.1084C44.3455 24.3925 43.8866 24.6976 43.4549 25.0164C38.8406 28.4137 36.0855 34.7808 36.0855 40.6317C36.0855 40.6573 36.0881 40.6316 36.0881 40.6572" fill="white"/>
</svg>
