<svg width="100" height="100" viewBox="0 0 100 100" fill="none" xmlns="http://www.w3.org/2000/svg">
<path d="M66.3586 53.1614H21.4177C21.0037 53.1614 20.6652 52.8097 20.6652 52.3795C20.6652 51.9492 21.0037 51.5975 21.4177 51.5975H66.3586C66.7727 51.5975 67.1103 51.9492 67.1103 52.3795C67.1112 52.8107 66.7727 53.1614 66.3586 53.1614Z" fill="white"/>
<path d="M71.6332 60.4986H30.2086C29.7946 60.4986 29.4561 60.1469 29.4561 59.7167C29.4561 59.2864 29.7946 58.9347 30.2086 58.9347H71.6332C72.0473 58.9347 72.3849 59.2864 72.3849 59.7167C72.3849 60.1469 72.0473 60.4986 71.6332 60.4986Z" fill="white"/>
<path d="M53.6505 67.8349H40.3577C39.9437 67.8349 39.6052 67.4832 39.6052 67.0529C39.6052 66.6227 39.9437 66.271 40.3577 66.271H53.6505C54.0654 66.271 54.4038 66.6227 54.4038 67.0529C54.4038 67.4832 54.0654 67.8349 53.6505 67.8349Z" fill="white"/>
<path d="M31.9326 38.9612H70.7198C71.1338 38.9612 71.4723 38.6095 71.4723 38.1792C71.4723 37.749 71.1338 37.3973 70.7198 37.3973H31.9326V38.9612Z" fill="white"/>
<path d="M21.5514 38.9612H28.6904V37.3973H21.5514C21.1373 37.3973 20.798 37.749 20.798 38.1792C20.7989 38.6086 21.1373 38.9612 21.5514 38.9612Z" fill="white"/>
<path d="M29.6962 46.2974H78.1525C78.5666 46.2974 78.9041 45.9457 78.9041 45.5155C78.9041 45.0852 78.5657 44.7335 78.1525 44.7335H29.6962C29.2821 44.7335 28.9436 45.0852 28.9436 45.5155C28.9436 45.9457 29.2821 46.2974 29.6962 46.2974Z" fill="white"/>
</svg>
