<svg width="100" height="100" viewBox="0 0 100 100" fill="none" xmlns="http://www.w3.org/2000/svg">
<path d="M38.9521 32.0673C38.9521 26.9782 41.3493 21.3639 45.3642 18.4079C45.7387 18.132 46.1386 17.8662 46.5527 17.6186C48.8559 16.2365 51.4686 15.5066 54.1085 15.5066C61.9702 15.5066 68.6047 21.8819 69.2139 30.0193L69.3098 30.793L70.0526 30.7656C78.265 30.7692 85.202 38.2562 85.202 47.118C85.202 55.9817 78.2607 63.4705 70.0455 63.4705C66.5969 63.4705 63.6176 62.4181 61.1905 60.1746L60.968 60.0549H60.1777L59.8841 60.2056C58.3844 61.4151 55.2636 63.8888 50.3055 63.8888C46.6635 63.8888 44.1563 62.6693 41.0549 59.4456L40.516 58.8756L39.9648 59.4164C37.2818 62.0765 33.798 63.4796 29.8895 63.4796C21.532 63.4796 14.7331 56.453 14.7331 47.8187C14.7331 45.4007 15.2632 43.0585 16.3084 40.8597C16.4948 40.4687 16.7005 40.0777 16.9203 39.6996C19.6973 34.9211 24.4022 32.0673 29.7471 32.0673C31.0473 32.0673 32.5514 32.2482 33.4305 32.5853V30.9081C32.5514 30.603 31.0429 30.4459 29.7471 30.4459C23.851 30.4459 18.5747 33.5919 15.5137 38.861C15.2711 39.2784 15.0795 39.7096 14.8737 40.1417C13.7213 42.5652 13.1551 45.1467 13.1551 47.8169C13.1551 57.3455 20.6634 65.0983 29.8807 65.0983C33.9342 65.0983 37.5851 63.7226 40.4808 61.1109C43.6473 64.2351 46.4578 65.4674 50.3029 65.4674C55.4764 65.4674 58.8011 63.0302 60.5373 61.6444C63.1587 63.9016 66.4351 65.0919 70.0447 65.0919C79.1055 65.0919 86.7615 56.8614 86.7615 47.118C86.7615 37.6104 79.472 29.5424 70.6987 29.1588C69.6948 20.5363 62.5416 13.8861 54.1085 13.8861C51.1952 13.8861 48.3126 14.6909 45.7729 16.2136C45.3176 16.4868 44.8763 16.7791 44.4622 17.0851C40.0351 20.3445 37.3917 26.453 37.3917 32.0673C37.3917 32.092 37.3943 32.0673 37.3943 32.092" fill="white"/>
<path d="M26.4206 81.6764C26.2896 81.6764 26.156 81.6462 26.0312 81.5814C25.596 81.3567 25.4185 80.8086 25.6338 80.3573L29.7981 71.6316C30.0144 71.1804 30.5409 70.9958 30.9761 71.2196C31.4112 71.4434 31.5888 71.9915 31.3734 72.4437L27.2092 81.1685C27.0553 81.4891 26.7441 81.6764 26.4206 81.6764Z" fill="white"/>
<path d="M40.5432 81.6764C40.4122 81.6764 40.2786 81.6462 40.1538 81.5814C39.7186 81.3567 39.5411 80.8086 39.7564 80.3573L43.9207 71.6316C44.1369 71.1804 44.6644 70.9958 45.0987 71.2196C45.5338 71.4434 45.7114 71.9915 45.496 72.4437L41.3318 81.1685C41.1779 81.4891 40.8667 81.6764 40.5432 81.6764Z" fill="white"/>
<path d="M54.6087 81.6764C54.4777 81.6764 54.3441 81.6462 54.2192 81.5814C53.7841 81.3567 53.6065 80.8086 53.8219 80.3573L57.9861 71.6316C58.2015 71.1804 58.7299 70.9958 59.1641 71.2196C59.5993 71.4434 59.7769 71.9915 59.5615 72.4437L55.3972 81.1685C55.2434 81.4891 54.9322 81.6764 54.6087 81.6764Z" fill="white"/>
<path d="M30.5673 87.8653C30.4363 87.8653 30.3036 87.8351 30.1779 87.7703C29.7427 87.5456 29.5651 86.9984 29.7805 86.5462L34.823 75.9935C35.0392 75.5414 35.5658 75.3577 36.0018 75.5806C36.4361 75.8054 36.6137 76.3525 36.3983 76.8056L31.3558 87.3574C31.202 87.6789 30.8908 87.8653 30.5673 87.8653Z" fill="white"/>
<path d="M58.8319 87.8653C58.7009 87.8653 58.5681 87.8351 58.4424 87.7703C58.0073 87.5456 57.8297 86.9975 58.0451 86.5462L63.0884 75.9935C63.3038 75.5414 63.8313 75.3577 64.2664 75.5806C64.7016 75.8054 64.8791 76.3535 64.6638 76.8056L59.6204 87.3574C59.4666 87.6789 59.1554 87.8653 58.8319 87.8653Z" fill="white"/>
<path d="M44.6996 87.8653C44.5686 87.8653 44.4358 87.8351 44.3101 87.7703C43.875 87.5456 43.6974 86.9975 43.9128 86.5462L48.9561 75.9935C49.1724 75.5414 49.6989 75.3577 50.1341 75.5806C50.5692 75.8054 50.7468 76.3535 50.5314 76.8056L45.4881 87.3574C45.3343 87.6789 45.0231 87.8653 44.6996 87.8653Z" fill="white"/>
<path d="M68.6742 81.6764C68.5432 81.6764 68.4096 81.6462 68.2847 81.5814C67.8496 81.3567 67.672 80.8086 67.8874 80.3573L72.0516 71.6316C72.2679 71.1804 72.7945 70.9958 73.2296 71.2196C73.6648 71.4434 73.8424 71.9915 73.627 72.4437L69.4627 81.1685C69.3089 81.4891 68.9977 81.6764 68.6742 81.6764Z" fill="white"/>
</svg>
