<svg width="299" height="177" viewBox="0 0 299 177" fill="none" xmlns="http://www.w3.org/2000/svg">
<path d="M258.414 27.5858C257.633 26.8047 256.367 26.8047 255.586 27.5858L242.858 40.3137C242.077 41.0947 242.077 42.3611 242.858 43.1421C243.639 43.9232 244.905 43.9232 245.686 43.1421L257 31.8284L268.314 43.1421C269.095 43.9232 270.361 43.9232 271.142 43.1421C271.923 42.3611 271.923 41.0947 271.142 40.3137L258.414 27.5858ZM259 144V29H255V144H259Z" fill="#4BC500"/>
<path d="M258.445 150.308C259.23 151.086 259.235 152.352 258.457 153.136L245.784 165.918C245.006 166.703 243.74 166.708 242.955 165.93C242.171 165.153 242.166 163.886 242.943 163.102L254.209 151.74L242.847 140.475C242.063 139.697 242.057 138.431 242.835 137.646C243.613 136.862 244.879 136.857 245.663 137.634L258.445 150.308ZM22.0286 150.728L257.029 149.728L257.046 153.728L22.0457 154.728L22.0286 150.728Z" fill="#FF0000"/>
<path d="M246.927 19.5347C247.223 18.4704 246.599 17.3681 245.535 17.0728L228.19 12.2601C227.126 11.9648 226.023 12.5882 225.728 13.6526C225.433 14.7169 226.056 15.8192 227.121 16.1145L242.538 20.3924L238.26 35.8099C237.965 36.8743 238.588 37.9765 239.653 38.2719C240.717 38.5672 241.819 37.9438 242.115 36.8794L246.927 19.5347ZM22.9846 146.868L245.985 20.7408L244.015 17.2592L21.0154 143.386L22.9846 146.868Z" fill="#001AFF"/>
<path d="M81.2319 105.459L79.307 103.692L76.3001 105.428L76.8793 107.972L75.2546 108.91L73.2057 98.8088L75.1941 97.6608L82.893 104.5L81.2319 105.459ZM75.0278 99.6967L74.9672 99.7317L75.8971 103.834L78.128 102.546L75.0278 99.6967ZM80.3893 97.5066L81.9412 96.6106L82.5432 97.6533L82.5917 97.6253C82.4948 97.1962 82.5434 96.7856 82.7373 96.3934C82.9265 95.9932 83.2313 95.6717 83.6516 95.4291C84.4599 94.9624 85.2398 94.8947 85.9915 95.2259C86.7465 95.5444 87.4297 96.233 88.0411 97.2919C88.6571 98.3588 88.9165 99.3029 88.8195 100.124C88.7305 100.941 88.2819 101.582 87.4736 102.049C87.0533 102.292 86.6225 102.395 86.1813 102.359C85.7481 102.318 85.3659 102.15 85.0347 101.857L84.9862 101.885L86.9952 105.364L85.4433 106.26L80.3893 97.5066ZM86.2345 101.051C86.6386 100.817 86.889 100.495 86.9856 100.084C87.0821 99.6723 86.9997 99.2403 86.7384 98.7876L86.1084 97.6964C85.8471 97.2438 85.5141 96.9564 85.1096 96.8344C84.7003 96.7042 84.2936 96.7558 83.8895 96.9891C83.5177 97.2038 83.2601 97.4764 83.1169 97.807C82.9817 98.1329 83.0028 98.4494 83.1802 98.7566L84.3422 100.769C84.5335 101.101 84.8017 101.285 85.1469 101.323C85.5001 101.356 85.8627 101.265 86.2345 101.051ZM87.6591 93.3093L89.211 92.4133L89.813 93.456L89.8615 93.428C89.7647 92.9989 89.8132 92.5883 90.0071 92.1962C90.1964 91.7959 90.5011 91.4745 90.9215 91.2318C91.7297 90.7651 92.5097 90.6974 93.2614 91.0286C94.0164 91.3471 94.6996 92.0358 95.3109 93.0946C95.9269 94.1616 96.1864 95.1057 96.0894 95.9269C96.0004 96.7434 95.5517 97.385 94.7435 97.8517C94.3231 98.0944 93.8924 98.1976 93.4511 98.1613C93.018 98.1204 92.6358 97.9531 92.3045 97.6594L92.256 97.6874L94.265 101.167L92.7131 102.063L87.6591 93.3093ZM93.5044 96.8535C93.9085 96.6202 94.1589 96.2978 94.2554 95.8864C94.352 95.475 94.2696 95.043 94.0083 94.5903L93.3783 93.4992C93.1169 93.0465 92.784 92.7592 92.3794 92.6371C91.9702 92.5069 91.5635 92.5585 91.1594 92.7919C90.7875 93.0065 90.53 93.2791 90.3868 93.6097C90.2516 93.9356 90.2727 94.2522 90.45 94.5593L91.612 96.5719C91.8034 96.9033 92.0716 97.088 92.4168 97.1258C92.77 97.1589 93.1325 97.0682 93.5044 96.8535ZM103.239 92.7529C102.899 92.9489 102.573 93.0083 102.258 92.931C101.948 92.8409 101.673 92.6441 101.433 92.3408L101.36 92.3828C101.493 92.8556 101.458 93.2905 101.256 93.6873C101.05 94.0761 100.708 94.4081 100.231 94.6834C99.5844 95.0568 98.9893 95.174 98.4458 95.0352C97.9022 94.8964 97.4671 94.5441 97.1404 93.9783C96.7624 93.3236 96.7168 92.7033 97.0036 92.1174C97.2858 91.5234 97.8593 90.9767 98.7241 90.4774L99.8032 89.8544L99.5372 89.3937C99.3319 89.038 99.0803 88.8169 98.7823 88.7302C98.4844 88.6435 98.1294 88.7192 97.7171 88.9572C97.3534 89.1672 97.1051 89.4184 96.9721 89.7107C96.8425 89.9903 96.7639 90.2835 96.7363 90.5904L95.3389 90.298C95.3633 89.7989 95.5065 89.3283 95.7685 88.886C96.0258 88.4357 96.4737 88.0262 97.1123 87.6575C97.9691 87.1629 98.7317 86.9812 99.4003 87.1125C100.069 87.2438 100.613 87.6732 101.033 88.4007L102.755 91.3833L103.386 91.0193L104.1 92.2559L103.239 92.7529ZM100.101 93.2549C100.449 93.0542 100.7 92.8071 100.853 92.5135C101.007 92.2199 100.998 91.9236 100.825 91.6245L100.342 90.788L99.348 91.362C98.5397 91.8286 98.2849 92.3206 98.5836 92.8379L98.7026 93.044C98.8519 93.3027 99.0447 93.45 99.2811 93.486C99.5208 93.5092 99.7942 93.4322 100.101 93.2549ZM105.356 91.5308L101.702 85.2019L103.254 84.3059L104.01 85.6153L104.07 85.5803C104.013 85.3872 103.98 85.1906 103.972 84.9903C103.968 84.7773 103.999 84.5706 104.066 84.37C104.134 84.1694 104.24 83.9791 104.383 83.799C104.535 83.6142 104.737 83.4495 104.987 83.3049L105.327 83.1089L106.174 84.5759L105.689 84.8559C105.163 85.1593 104.812 85.4647 104.634 85.7723C104.456 86.0799 104.467 86.4074 104.668 86.755L106.908 90.6348L105.356 91.5308ZM112.698 87.4854C112.23 87.7561 111.765 87.922 111.304 87.983C110.847 88.0314 110.408 87.9888 109.986 87.8552C109.567 87.7089 109.173 87.4733 108.802 87.1485C108.427 86.8156 108.092 86.3946 107.798 85.8853C107.508 85.3842 107.312 84.8942 107.208 84.4154C107.112 83.9319 107.108 83.4764 107.195 83.0488C107.277 82.6132 107.456 82.2136 107.731 81.85C108.002 81.4783 108.367 81.1595 108.828 80.8935C109.321 80.6088 109.798 80.4464 110.26 80.4061C110.722 80.3659 111.154 80.4236 111.556 80.5792C111.959 80.7349 112.328 80.974 112.666 81.2967C113.006 81.6066 113.302 81.9797 113.554 82.4162L113.848 82.9254L109.641 85.3544L109.732 85.5121C109.998 85.9728 110.342 86.2699 110.764 86.4035C111.182 86.529 111.645 86.4447 112.154 86.1507C112.542 85.9267 112.811 85.6639 112.96 85.3622C113.117 85.0559 113.22 84.7215 113.27 84.3589L114.645 84.8095C114.597 85.3225 114.407 85.8148 114.075 86.2863C113.747 86.745 113.288 87.1447 112.698 87.4854ZM109.524 82.0435C109.112 82.2815 108.864 82.6079 108.78 83.0227C108.696 83.4375 108.78 83.8631 109.032 84.2996L109.088 84.3966L111.683 82.8986L111.62 82.7895C111.368 82.353 111.056 82.0644 110.684 81.9237C110.315 81.7702 109.928 81.8101 109.524 82.0435ZM116.817 84.9136L113.163 78.5847L114.715 77.6887L115.324 78.7435L115.384 78.7085C115.318 78.2944 115.357 77.8948 115.501 77.5098C115.648 77.1121 115.969 76.7709 116.462 76.4862C117.116 76.1082 117.741 76.0331 118.336 76.2608C118.931 76.4885 119.457 76.9984 119.914 77.7906L122.224 81.7916L120.672 82.6876L118.453 78.8442C118.192 78.3915 117.915 78.0987 117.623 77.9657C117.331 77.8327 116.999 77.8736 116.627 78.0882C116.465 78.1816 116.321 78.2968 116.196 78.434C116.074 78.5584 115.978 78.7001 115.908 78.859C115.841 79.0051 115.809 79.1639 115.811 79.3352C115.808 79.4985 115.856 79.665 115.954 79.8347L118.369 84.0176L116.817 84.9136ZM125.921 79.6574C125.387 79.9654 124.9 80.0636 124.458 79.9521C124.02 79.8279 123.652 79.5071 123.353 78.9898L121.344 75.5101L120.411 76.0491L119.697 74.8125L120.182 74.5325C120.416 74.3971 120.543 74.2536 120.563 74.1018C120.587 73.9373 120.536 73.746 120.41 73.5277L119.787 72.4487L121.181 71.6437L122.182 73.3775L123.479 72.6285L124.193 73.8651L122.896 74.6141L125.122 78.4697L126.322 77.7767L127.036 79.0134L125.921 79.6574ZM131.442 76.4699L126.556 68.0071L130.363 65.8091C130.751 65.5851 131.136 65.4491 131.518 65.4011C131.903 65.3403 132.272 65.3642 132.626 65.4726C132.975 65.5729 133.299 65.752 133.599 66.01C133.899 66.268 134.161 66.591 134.385 66.979C134.613 67.375 134.764 67.7674 134.838 68.156C134.907 68.5366 134.9 68.9071 134.817 69.2675C134.729 69.6198 134.565 69.9516 134.325 70.263C134.087 70.5615 133.775 70.8228 133.387 71.0468L131.18 72.3208L133.042 75.5459L131.442 76.4699ZM130.382 70.9386L132.443 69.7486C132.751 69.5713 132.946 69.3505 133.031 69.0862C133.111 68.8138 133.062 68.524 132.885 68.2168L132.563 67.6591C132.385 67.352 132.161 67.1689 131.89 67.1099C131.619 67.0509 131.33 67.1101 131.022 67.2874L128.961 68.4774L130.382 70.9386ZM141.469 70.8747C141.016 71.1361 140.564 71.295 140.111 71.3514C139.667 71.4031 139.232 71.3582 138.805 71.2165C138.386 71.0702 137.992 70.8347 137.621 70.5098C137.246 70.1769 136.911 69.7559 136.617 69.2467C136.323 68.7374 136.128 68.2411 136.032 67.7576C135.936 67.2741 135.932 66.8186 136.019 66.391C136.11 65.9507 136.288 65.5511 136.555 65.1922C136.83 64.8286 137.194 64.5162 137.647 64.2548C138.1 63.9935 138.552 63.8346 139.004 63.7782C139.457 63.7218 139.892 63.7667 140.311 63.913C140.733 64.0466 141.129 64.2758 141.5 64.6006C141.871 64.9254 142.203 65.3424 142.497 65.8517C142.791 66.3609 142.988 66.8613 143.089 67.3528C143.185 67.8363 143.188 68.2982 143.097 68.7385C143.014 69.1742 142.836 69.5738 142.56 69.9374C142.285 70.301 141.922 70.6134 141.469 70.8747ZM140.748 69.6259C141.16 69.3879 141.411 69.076 141.501 68.6901C141.591 68.3042 141.495 67.8687 141.215 67.3838L140.536 66.2077C140.261 65.7308 139.934 65.4347 139.555 65.3195C139.176 65.2043 138.78 65.2656 138.368 65.5036C137.964 65.737 137.717 66.0466 137.627 66.4325C137.537 66.8184 137.63 67.2498 137.905 67.7267L138.584 68.9028C138.864 69.3877 139.194 69.6878 139.573 69.8031C139.952 69.9183 140.344 69.8593 140.748 69.6259ZM141.328 62.3235L142.819 61.4625L144.967 63.6983L146.717 65.5815L146.766 65.5535L146.095 63.0473L145.329 60.0135L146.736 59.2015L149.004 61.3673L150.851 63.1945L150.9 63.1665L150.144 60.7093L149.27 57.7385L150.712 56.9055L152.633 64.2354L150.959 65.2014L148.537 62.8818L147.07 61.4332L147.034 61.4542L147.567 63.4418L148.377 66.6924L146.728 67.6444L141.328 62.3235ZM158.07 61.2901C157.601 61.5608 157.137 61.7266 156.676 61.7877C156.219 61.8361 155.779 61.7935 155.357 61.6599C154.939 61.5136 154.544 61.278 154.174 60.9532C153.798 60.6203 153.463 60.1992 153.169 59.69C152.88 59.1889 152.683 58.6989 152.579 58.2201C152.483 57.7366 152.479 57.2811 152.566 56.8535C152.649 56.4179 152.828 56.0183 153.103 55.6547C153.373 55.283 153.739 54.9642 154.2 54.6982C154.693 54.4135 155.17 54.2511 155.632 54.2108C156.093 54.1706 156.525 54.2282 156.928 54.3839C157.33 54.5396 157.7 54.7787 158.037 55.1013C158.378 55.4112 158.674 55.7844 158.926 56.2209L159.22 56.7301L155.013 59.1591L155.104 59.3167C155.37 59.7775 155.714 60.0746 156.136 60.2082C156.553 60.3337 157.017 60.2494 157.526 59.9554C157.914 59.7314 158.182 59.4686 158.331 59.1669C158.489 58.8606 158.592 58.5262 158.641 58.1636L160.017 58.6142C159.968 59.1272 159.778 59.6195 159.447 60.091C159.119 60.5497 158.66 60.9494 158.07 61.2901ZM154.896 55.8481C154.484 56.0861 154.236 56.4125 154.152 56.8274C154.068 57.2422 154.152 57.6678 154.404 58.1043L154.46 58.2013L157.055 56.7033L156.992 56.5942C156.74 56.1577 156.427 55.8691 156.055 55.7284C155.686 55.5749 155.3 55.6148 154.896 55.8481ZM162.189 58.7183L158.535 52.3894L160.086 51.4934L160.842 52.8028L160.903 52.7678C160.845 52.5747 160.813 52.3781 160.805 52.1778C160.8 51.9648 160.832 51.7581 160.899 51.5575C160.967 51.3569 161.072 51.1666 161.216 50.9865C161.368 50.8017 161.57 50.637 161.82 50.4924L162.16 50.2964L163.007 51.7634L162.522 52.0434C161.996 52.3468 161.645 52.6522 161.467 52.9598C161.288 53.2674 161.3 53.5949 161.5 53.9425L163.74 57.8223L162.189 58.7183ZM167.339 50.7011C167.003 50.1192 166.731 49.5271 166.523 48.9249C166.324 48.318 166.184 47.7305 166.104 47.1624C166.027 46.5816 166.008 46.0266 166.048 45.4974C166.087 44.9682 166.183 44.4815 166.336 44.0374L167.804 43.1904C167.649 43.6889 167.546 44.2011 167.494 44.7269C167.45 45.248 167.459 45.7765 167.521 46.3122C167.577 46.8398 167.688 47.3684 167.854 47.8979C168.028 48.4227 168.257 48.9316 168.542 49.4247L169.06 50.3219C169.349 50.823 169.68 51.284 170.052 51.7049C170.428 52.1131 170.832 52.4777 171.266 52.7987C171.702 53.107 172.157 53.3724 172.63 53.5949C173.112 53.8127 173.598 53.9738 174.09 54.0781L172.622 54.9251C172.179 54.8472 171.718 54.693 171.24 54.4624C170.762 54.2318 170.291 53.9382 169.826 53.5813C169.357 53.2165 168.909 52.7959 168.483 52.3197C168.061 51.8307 167.679 51.2912 167.339 50.7011ZM176.71 50.528C175.983 50.948 175.29 51.1757 174.631 51.2111C173.981 51.2417 173.353 51.1519 172.746 50.9416L173.223 49.2759C173.71 49.4474 174.183 49.5194 174.641 49.4919C175.108 49.4597 175.559 49.3176 175.995 49.0656C176.488 48.7809 176.8 48.4612 176.929 48.1064C177.053 47.7435 177.011 47.3802 176.801 47.0164C176.637 46.7335 176.424 46.5498 176.159 46.4653C175.895 46.3808 175.517 46.4265 175.026 46.6024L174.156 46.9431C172.312 47.6517 170.994 47.319 170.201 45.9449C169.981 45.565 169.852 45.1818 169.812 44.7953C169.78 44.4041 169.834 44.0225 169.975 43.6502C170.116 43.278 170.34 42.9279 170.646 42.6001C170.956 42.2595 171.349 41.9516 171.826 41.6763C172.465 41.3076 173.083 41.0907 173.681 41.0255C174.28 40.9603 174.867 41.0358 175.445 41.2521L174.949 42.9126C174.589 42.7753 174.213 42.7122 173.821 42.7232C173.428 42.7342 173.006 42.8703 172.553 43.1317C172.093 43.3977 171.796 43.6873 171.665 44.0004C171.536 44.3008 171.563 44.6086 171.745 44.9239C171.932 45.2472 172.162 45.432 172.437 45.4782C172.712 45.5245 173.076 45.4649 173.53 45.2997L174.402 44.9902C175.348 44.6491 176.137 44.5599 176.77 44.7226C177.406 44.8726 177.927 45.2992 178.333 46.0024C178.566 46.4066 178.706 46.8163 178.752 47.2317C178.801 47.6344 178.758 48.0363 178.623 48.4375C178.492 48.8259 178.266 49.1991 177.944 49.557C177.631 49.9104 177.22 50.234 176.71 50.528ZM181.709 42.4044C182.05 42.9945 182.322 43.597 182.526 44.212C182.734 44.8142 182.878 45.4098 182.96 45.9987C183.036 46.5795 183.055 47.1345 183.016 47.6637C182.976 48.1929 182.879 48.6692 182.725 49.0924L181.258 49.9394C181.413 49.4618 181.513 48.9624 181.557 48.4412C181.609 47.9154 181.607 47.3887 181.55 46.861C181.497 46.3206 181.383 45.788 181.209 45.2632C181.039 44.7257 180.809 44.2063 180.52 43.7052L180.002 42.808C179.717 42.3149 179.387 41.8643 179.011 41.4562C178.644 41.0434 178.246 40.6805 177.817 40.3675C177.384 40.0464 176.926 39.777 176.445 39.5592C175.972 39.3367 175.481 39.1676 174.972 39.0517L176.439 38.2047C176.9 38.2941 177.37 38.4541 177.848 38.6847C178.326 38.9152 178.793 39.2113 179.25 39.5727C179.71 39.9215 180.148 40.3363 180.566 40.8172C180.992 41.2934 181.373 41.8225 181.709 42.4044Z" fill="black"/>
<path d="M88.996 167H87.148V157.228H91.558C92.006 157.228 92.4073 157.298 92.762 157.438C93.1167 157.578 93.4153 157.783 93.658 158.054C93.91 158.315 94.1013 158.633 94.232 159.006C94.372 159.379 94.442 159.795 94.442 160.252C94.442 160.924 94.288 161.503 93.98 161.988C93.6813 162.473 93.2287 162.819 92.622 163.024L94.624 167H92.566L90.746 163.234H88.996V167ZM91.376 161.68C91.7307 161.68 92.0107 161.587 92.216 161.4C92.4213 161.204 92.524 160.929 92.524 160.574V159.93C92.524 159.575 92.4213 159.305 92.216 159.118C92.0107 158.931 91.7307 158.838 91.376 158.838H88.996V161.68H91.376ZM99.0818 167.168C98.5405 167.168 98.0551 167.079 97.6258 166.902C97.2058 166.715 96.8465 166.459 96.5478 166.132C96.2585 165.796 96.0345 165.395 95.8758 164.928C95.7171 164.452 95.6378 163.92 95.6378 163.332C95.6378 162.753 95.7125 162.231 95.8618 161.764C96.0205 161.297 96.2445 160.901 96.5338 160.574C96.8231 160.238 97.1778 159.981 97.5978 159.804C98.0178 159.617 98.4938 159.524 99.0258 159.524C99.5951 159.524 100.09 159.622 100.51 159.818C100.93 160.014 101.275 160.28 101.546 160.616C101.816 160.952 102.017 161.344 102.148 161.792C102.288 162.231 102.358 162.702 102.358 163.206V163.794H97.4998V163.976C97.4998 164.508 97.6491 164.937 97.9478 165.264C98.2465 165.581 98.6898 165.74 99.2778 165.74C99.7258 165.74 100.09 165.647 100.37 165.46C100.659 165.273 100.916 165.035 101.14 164.746L102.106 165.824C101.807 166.244 101.396 166.575 100.874 166.818C100.36 167.051 99.7631 167.168 99.0818 167.168ZM99.0538 160.868C98.5778 160.868 98.1998 161.027 97.9198 161.344C97.6398 161.661 97.4998 162.072 97.4998 162.576V162.688H100.496V162.562C100.496 162.058 100.37 161.652 100.118 161.344C99.8751 161.027 99.5205 160.868 99.0538 160.868ZM109.31 167C108.918 167 108.606 166.888 108.372 166.664C108.148 166.431 108.008 166.123 107.952 165.74H107.868C107.747 166.216 107.5 166.575 107.126 166.818C106.753 167.051 106.291 167.168 105.74 167.168C104.994 167.168 104.42 166.972 104.018 166.58C103.617 166.188 103.416 165.665 103.416 165.012C103.416 164.256 103.687 163.696 104.228 163.332C104.77 162.959 105.54 162.772 106.538 162.772H107.784V162.24C107.784 161.829 107.677 161.512 107.462 161.288C107.248 161.064 106.902 160.952 106.426 160.952C106.006 160.952 105.666 161.045 105.404 161.232C105.152 161.409 104.938 161.624 104.76 161.876L103.696 160.924C103.967 160.504 104.326 160.168 104.774 159.916C105.222 159.655 105.815 159.524 106.552 159.524C107.542 159.524 108.293 159.748 108.806 160.196C109.32 160.644 109.576 161.288 109.576 162.128V165.572H110.304V167H109.31ZM106.342 165.866C106.744 165.866 107.084 165.777 107.364 165.6C107.644 165.423 107.784 165.161 107.784 164.816V163.85H106.636C105.703 163.85 105.236 164.149 105.236 164.746V164.984C105.236 165.283 105.33 165.507 105.516 165.656C105.712 165.796 105.988 165.866 106.342 165.866ZM113.547 167C112.931 167 112.478 166.846 112.189 166.538C111.899 166.23 111.755 165.796 111.755 165.236V156.64H113.547V165.572H114.513V167H113.547ZM119.291 167V157.228H123.687C124.135 157.228 124.536 157.303 124.891 157.452C125.255 157.592 125.563 157.797 125.815 158.068C126.067 158.329 126.258 158.647 126.389 159.02C126.519 159.393 126.585 159.804 126.585 160.252C126.585 160.709 126.519 161.125 126.389 161.498C126.258 161.862 126.067 162.179 125.815 162.45C125.563 162.711 125.255 162.917 124.891 163.066C124.536 163.206 124.135 163.276 123.687 163.276H121.139V167H119.291ZM121.139 161.68H123.519C123.873 161.68 124.153 161.587 124.359 161.4C124.564 161.204 124.667 160.929 124.667 160.574V159.93C124.667 159.575 124.564 159.305 124.359 159.118C124.153 158.931 123.873 158.838 123.519 158.838H121.139V161.68ZM130.772 167.168C130.249 167.168 129.778 167.079 129.358 166.902C128.947 166.725 128.593 166.468 128.294 166.132C128.005 165.796 127.781 165.395 127.622 164.928C127.463 164.452 127.384 163.92 127.384 163.332C127.384 162.744 127.463 162.217 127.622 161.75C127.781 161.283 128.005 160.887 128.294 160.56C128.593 160.224 128.947 159.967 129.358 159.79C129.778 159.613 130.249 159.524 130.772 159.524C131.295 159.524 131.766 159.613 132.186 159.79C132.606 159.967 132.961 160.224 133.25 160.56C133.549 160.887 133.777 161.283 133.936 161.75C134.095 162.217 134.174 162.744 134.174 163.332C134.174 163.92 134.095 164.452 133.936 164.928C133.777 165.395 133.549 165.796 133.25 166.132C132.961 166.468 132.606 166.725 132.186 166.902C131.766 167.079 131.295 167.168 130.772 167.168ZM130.772 165.726C131.248 165.726 131.621 165.581 131.892 165.292C132.163 165.003 132.298 164.578 132.298 164.018V162.66C132.298 162.109 132.163 161.689 131.892 161.4C131.621 161.111 131.248 160.966 130.772 160.966C130.305 160.966 129.937 161.111 129.666 161.4C129.395 161.689 129.26 162.109 129.26 162.66V164.018C129.26 164.578 129.395 165.003 129.666 165.292C129.937 165.581 130.305 165.726 130.772 165.726ZM134.926 159.692H136.648L137.39 162.702L137.964 165.208H138.02L138.692 162.702L139.546 159.692H141.17L142.052 162.702L142.738 165.208H142.794L143.368 162.702L144.096 159.692H145.762L143.76 167H141.828L140.89 163.78L140.344 161.792H140.302L139.77 163.78L138.846 167H136.942L134.926 159.692ZM149.941 167.168C149.4 167.168 148.915 167.079 148.485 166.902C148.065 166.715 147.706 166.459 147.407 166.132C147.118 165.796 146.894 165.395 146.735 164.928C146.577 164.452 146.497 163.92 146.497 163.332C146.497 162.753 146.572 162.231 146.721 161.764C146.88 161.297 147.104 160.901 147.393 160.574C147.683 160.238 148.037 159.981 148.457 159.804C148.877 159.617 149.353 159.524 149.885 159.524C150.455 159.524 150.949 159.622 151.369 159.818C151.789 160.014 152.135 160.28 152.405 160.616C152.676 160.952 152.877 161.344 153.007 161.792C153.147 162.231 153.217 162.702 153.217 163.206V163.794H148.359V163.976C148.359 164.508 148.509 164.937 148.807 165.264C149.106 165.581 149.549 165.74 150.137 165.74C150.585 165.74 150.949 165.647 151.229 165.46C151.519 165.273 151.775 165.035 151.999 164.746L152.965 165.824C152.667 166.244 152.256 166.575 151.733 166.818C151.22 167.051 150.623 167.168 149.941 167.168ZM149.913 160.868C149.437 160.868 149.059 161.027 148.779 161.344C148.499 161.661 148.359 162.072 148.359 162.576V162.688H151.355V162.562C151.355 162.058 151.229 161.652 150.977 161.344C150.735 161.027 150.38 160.868 149.913 160.868ZM154.794 167V159.692H156.586V161.204H156.656C156.702 161.008 156.772 160.821 156.866 160.644C156.968 160.457 157.099 160.294 157.258 160.154C157.416 160.014 157.603 159.902 157.818 159.818C158.042 159.734 158.298 159.692 158.588 159.692H158.98V161.386H158.42C157.813 161.386 157.356 161.475 157.048 161.652C156.74 161.829 156.586 162.119 156.586 162.52V167H154.794ZM163.263 162.632C163.263 161.96 163.323 161.311 163.445 160.686C163.575 160.061 163.748 159.482 163.963 158.95C164.187 158.409 164.448 157.919 164.747 157.48C165.045 157.041 165.372 156.668 165.727 156.36H167.421C167.038 156.715 166.693 157.107 166.385 157.536C166.086 157.965 165.829 158.427 165.615 158.922C165.4 159.407 165.232 159.921 165.111 160.462C164.999 161.003 164.943 161.559 164.943 162.128V163.164C164.943 163.743 164.999 164.307 165.111 164.858C165.232 165.399 165.4 165.917 165.615 166.412C165.839 166.897 166.1 167.355 166.399 167.784C166.707 168.213 167.047 168.596 167.421 168.932H165.727C165.381 168.643 165.059 168.279 164.761 167.84C164.462 167.401 164.201 166.911 163.977 166.37C163.753 165.819 163.575 165.231 163.445 164.606C163.323 163.971 163.263 163.313 163.263 162.632ZM168.427 167V157.228H172.823C173.271 157.228 173.673 157.303 174.027 157.452C174.391 157.592 174.699 157.797 174.951 158.068C175.203 158.329 175.395 158.647 175.525 159.02C175.656 159.393 175.721 159.804 175.721 160.252C175.721 160.709 175.656 161.125 175.525 161.498C175.395 161.862 175.203 162.179 174.951 162.45C174.699 162.711 174.391 162.917 174.027 163.066C173.673 163.206 173.271 163.276 172.823 163.276H170.275V167H168.427ZM170.275 161.68H172.655C173.01 161.68 173.29 161.587 173.495 161.4C173.701 161.204 173.803 160.929 173.803 160.574V159.93C173.803 159.575 173.701 159.305 173.495 159.118C173.29 158.931 173.01 158.838 172.655 158.838H170.275V161.68ZM180.266 162.632C180.266 163.313 180.201 163.971 180.07 164.606C179.949 165.231 179.776 165.819 179.552 166.37C179.328 166.911 179.067 167.401 178.768 167.84C178.469 168.279 178.147 168.643 177.802 168.932H176.108C176.481 168.596 176.817 168.213 177.116 167.784C177.424 167.355 177.685 166.897 177.9 166.412C178.124 165.917 178.292 165.399 178.404 164.858C178.525 164.307 178.586 163.743 178.586 163.164V162.128C178.586 161.559 178.525 161.003 178.404 160.462C178.292 159.921 178.129 159.407 177.914 158.922C177.699 158.427 177.438 157.965 177.13 157.536C176.831 157.107 176.491 156.715 176.108 156.36H177.802C178.157 156.668 178.483 157.041 178.782 157.48C179.081 157.919 179.337 158.409 179.552 158.95C179.776 159.482 179.949 160.061 180.07 160.686C180.201 161.311 180.266 161.96 180.266 162.632Z" fill="black"/>
<path d="M288 150.004V151.852H278.228V147.442C278.228 146.994 278.298 146.593 278.438 146.238C278.578 145.883 278.783 145.585 279.054 145.342C279.315 145.09 279.633 144.899 280.006 144.768C280.379 144.628 280.795 144.558 281.252 144.558C281.924 144.558 282.503 144.712 282.988 145.02C283.473 145.319 283.819 145.771 284.024 146.378L288 144.376V146.434L284.234 148.254V150.004H288ZM282.68 147.624C282.68 147.269 282.587 146.989 282.4 146.784C282.204 146.579 281.929 146.476 281.574 146.476H280.93C280.575 146.476 280.305 146.579 280.118 146.784C279.931 146.989 279.838 147.269 279.838 147.624V150.004H282.68V147.624ZM288.168 139.918C288.168 140.46 288.079 140.945 287.902 141.374C287.715 141.794 287.459 142.154 287.132 142.452C286.796 142.742 286.395 142.966 285.928 143.124C285.452 143.283 284.92 143.362 284.332 143.362C283.753 143.362 283.231 143.288 282.764 143.138C282.297 142.98 281.901 142.756 281.574 142.466C281.238 142.177 280.981 141.822 280.804 141.402C280.617 140.982 280.524 140.506 280.524 139.974C280.524 139.405 280.622 138.91 280.818 138.49C281.014 138.07 281.28 137.725 281.616 137.454C281.952 137.184 282.344 136.983 282.792 136.852C283.231 136.712 283.702 136.642 284.206 136.642H284.794V141.5H284.976C285.508 141.5 285.937 141.351 286.264 141.052C286.581 140.754 286.74 140.31 286.74 139.722C286.74 139.274 286.647 138.91 286.46 138.63C286.273 138.341 286.035 138.084 285.746 137.86L286.824 136.894C287.244 137.193 287.575 137.604 287.818 138.126C288.051 138.64 288.168 139.237 288.168 139.918ZM281.868 139.946C281.868 140.422 282.027 140.8 282.344 141.08C282.661 141.36 283.072 141.5 283.576 141.5H283.688V138.504H283.562C283.058 138.504 282.652 138.63 282.344 138.882C282.027 139.125 281.868 139.48 281.868 139.946ZM288 129.69C288 130.082 287.888 130.394 287.664 130.628C287.431 130.852 287.123 130.992 286.74 131.048V131.132C287.216 131.253 287.575 131.5 287.818 131.874C288.051 132.247 288.168 132.709 288.168 133.26C288.168 134.006 287.972 134.58 287.58 134.982C287.188 135.383 286.665 135.584 286.012 135.584C285.256 135.584 284.696 135.313 284.332 134.772C283.959 134.23 283.772 133.46 283.772 132.462V131.216H283.24C282.829 131.216 282.512 131.323 282.288 131.538C282.064 131.752 281.952 132.098 281.952 132.574C281.952 132.994 282.045 133.334 282.232 133.596C282.409 133.848 282.624 134.062 282.876 134.24L281.924 135.304C281.504 135.033 281.168 134.674 280.916 134.226C280.655 133.778 280.524 133.185 280.524 132.448C280.524 131.458 280.748 130.707 281.196 130.194C281.644 129.68 282.288 129.424 283.128 129.424H286.572V128.696H288V129.69ZM286.866 132.658C286.866 132.256 286.777 131.916 286.6 131.636C286.423 131.356 286.161 131.216 285.816 131.216H284.85V132.364C284.85 133.297 285.149 133.764 285.746 133.764H285.984C286.283 133.764 286.507 133.67 286.656 133.484C286.796 133.288 286.866 133.012 286.866 132.658ZM288.168 124.361C288.168 124.903 288.079 125.383 287.902 125.803C287.725 126.223 287.468 126.578 287.132 126.867C286.796 127.147 286.395 127.362 285.928 127.511C285.452 127.661 284.92 127.735 284.332 127.735C283.744 127.735 283.217 127.661 282.75 127.511C282.283 127.362 281.887 127.147 281.56 126.867C281.224 126.578 280.967 126.223 280.79 125.803C280.613 125.383 280.524 124.903 280.524 124.361C280.524 123.624 280.687 123.017 281.014 122.541C281.341 122.056 281.793 121.706 282.372 121.491L283.03 122.961C282.722 123.045 282.47 123.204 282.274 123.437C282.069 123.661 281.966 123.969 281.966 124.361C281.966 124.865 282.125 125.243 282.442 125.495C282.759 125.738 283.175 125.859 283.688 125.859H285.018C285.531 125.859 285.947 125.738 286.264 125.495C286.572 125.243 286.726 124.865 286.726 124.361C286.726 123.932 286.619 123.601 286.404 123.367C286.18 123.134 285.905 122.952 285.578 122.821L286.236 121.449C286.88 121.692 287.365 122.061 287.692 122.555C288.009 123.05 288.168 123.652 288.168 124.361ZM288 117.786C288 118.402 287.841 118.873 287.524 119.2C287.197 119.517 286.735 119.676 286.138 119.676H282.12V120.754H280.692V120.194C280.692 119.923 280.631 119.741 280.51 119.648C280.379 119.545 280.188 119.494 279.936 119.494H278.69V117.884H280.692V116.386H282.12V117.884H286.572V116.498H288V117.786ZM279.628 113.935C279.628 114.309 279.544 114.579 279.376 114.747C279.208 114.906 278.993 114.985 278.732 114.985H278.452C278.191 114.985 277.976 114.906 277.808 114.747C277.64 114.579 277.556 114.309 277.556 113.935C277.556 113.571 277.64 113.305 277.808 113.137C277.976 112.969 278.191 112.885 278.452 112.885H278.732C278.993 112.885 279.208 112.969 279.376 113.137C279.544 113.305 279.628 113.571 279.628 113.935ZM280.692 114.831V113.039H288V114.831H280.692ZM288 109.394L280.692 111.83V110.066L283.842 109.044L286.446 108.33V108.232L283.842 107.518L280.692 106.524V104.816L288 107.266V109.394ZM288.168 100.776C288.168 101.317 288.079 101.802 287.902 102.232C287.715 102.652 287.459 103.011 287.132 103.31C286.796 103.599 286.395 103.823 285.928 103.982C285.452 104.14 284.92 104.22 284.332 104.22C283.753 104.22 283.231 104.145 282.764 103.996C282.297 103.837 281.901 103.613 281.574 103.324C281.238 103.034 280.981 102.68 280.804 102.26C280.617 101.84 280.524 101.364 280.524 100.832C280.524 100.262 280.622 99.7676 280.818 99.3476C281.014 98.9276 281.28 98.5823 281.616 98.3116C281.952 98.041 282.344 97.8403 282.792 97.7096C283.231 97.5696 283.702 97.4996 284.206 97.4996H284.794V102.358H284.976C285.508 102.358 285.937 102.208 286.264 101.91C286.581 101.611 286.74 101.168 286.74 100.58C286.74 100.132 286.647 99.7676 286.46 99.4876C286.273 99.1983 286.035 98.9416 285.746 98.7176L286.824 97.7516C287.244 98.0503 287.575 98.461 287.818 98.9836C288.051 99.497 288.168 100.094 288.168 100.776ZM281.868 100.804C281.868 101.28 282.027 101.658 282.344 101.938C282.661 102.218 283.072 102.358 283.576 102.358H283.688V99.3616H283.562C283.058 99.3616 282.652 99.4876 282.344 99.7396C282.027 99.9823 281.868 100.337 281.868 100.804ZM288 92.5024H278.228V88.1064C278.228 87.6584 278.303 87.2571 278.452 86.9024C278.592 86.5384 278.797 86.2304 279.068 85.9784C279.329 85.7264 279.647 85.5351 280.02 85.4044C280.393 85.2737 280.804 85.2084 281.252 85.2084C281.709 85.2084 282.125 85.2737 282.498 85.4044C282.862 85.5351 283.179 85.7264 283.45 85.9784C283.711 86.2304 283.917 86.5384 284.066 86.9024C284.206 87.2571 284.276 87.6584 284.276 88.1064V90.6544H288V92.5024ZM282.68 90.6544V88.2744C282.68 87.9197 282.587 87.6397 282.4 87.4344C282.204 87.2291 281.929 87.1264 281.574 87.1264H280.93C280.575 87.1264 280.305 87.2291 280.118 87.4344C279.931 87.6397 279.838 87.9197 279.838 88.2744V90.6544H282.68ZM288.168 81.0211C288.168 81.5437 288.079 82.0151 287.902 82.4351C287.725 82.8457 287.468 83.2004 287.132 83.4991C286.796 83.7884 286.395 84.0124 285.928 84.1711C285.452 84.3297 284.92 84.4091 284.332 84.4091C283.744 84.4091 283.217 84.3297 282.75 84.1711C282.283 84.0124 281.887 83.7884 281.56 83.4991C281.224 83.2004 280.967 82.8457 280.79 82.4351C280.613 82.0151 280.524 81.5437 280.524 81.0211C280.524 80.4984 280.613 80.0271 280.79 79.6071C280.967 79.1871 281.224 78.8324 281.56 78.5431C281.887 78.2444 282.283 78.0157 282.75 77.8571C283.217 77.6984 283.744 77.6191 284.332 77.6191C284.92 77.6191 285.452 77.6984 285.928 77.8571C286.395 78.0157 286.796 78.2444 287.132 78.5431C287.468 78.8324 287.725 79.1871 287.902 79.6071C288.079 80.0271 288.168 80.4984 288.168 81.0211ZM286.726 81.0211C286.726 80.5451 286.581 80.1717 286.292 79.9011C286.003 79.6304 285.578 79.4951 285.018 79.4951H283.66C283.109 79.4951 282.689 79.6304 282.4 79.9011C282.111 80.1717 281.966 80.5451 281.966 81.0211C281.966 81.4877 282.111 81.8564 282.4 82.1271C282.689 82.3977 283.109 82.5331 283.66 82.5331H285.018C285.578 82.5331 286.003 82.3977 286.292 82.1271C286.581 81.8564 286.726 81.4877 286.726 81.0211ZM280.692 76.8675V75.1455L283.702 74.4035L286.208 73.8295V73.7735L283.702 73.1015L280.692 72.2475V70.6235L283.702 69.7415L286.208 69.0555V68.9995L283.702 68.4255L280.692 67.6975V66.0315L288 68.0335V69.9655L284.78 70.9035L282.792 71.4495V71.4915L284.78 72.0235L288 72.9475V74.8515L280.692 76.8675ZM288.168 61.8518C288.168 62.3931 288.079 62.8785 287.902 63.3078C287.715 63.7278 287.459 64.0871 287.132 64.3858C286.796 64.6751 286.395 64.8991 285.928 65.0578C285.452 65.2165 284.92 65.2958 284.332 65.2958C283.753 65.2958 283.231 65.2211 282.764 65.0718C282.297 64.9131 281.901 64.6891 281.574 64.3998C281.238 64.1105 280.981 63.7558 280.804 63.3358C280.617 62.9158 280.524 62.4398 280.524 61.9078C280.524 61.3385 280.622 60.8438 280.818 60.4238C281.014 60.0038 281.28 59.6585 281.616 59.3878C281.952 59.1171 282.344 58.9165 282.792 58.7858C283.231 58.6458 283.702 58.5758 284.206 58.5758H284.794V63.4338H284.976C285.508 63.4338 285.937 63.2845 286.264 62.9858C286.581 62.6871 286.74 62.2438 286.74 61.6558C286.74 61.2078 286.647 60.8438 286.46 60.5638C286.273 60.2745 286.035 60.0178 285.746 59.7938L286.824 58.8278C287.244 59.1265 287.575 59.5371 287.818 60.0598C288.051 60.5731 288.168 61.1705 288.168 61.8518ZM281.868 61.8798C281.868 62.3558 282.027 62.7338 282.344 63.0138C282.661 63.2938 283.072 63.4338 283.576 63.4338H283.688V60.4378H283.562C283.058 60.4378 282.652 60.5638 282.344 60.8158C282.027 61.0585 281.868 61.4131 281.868 61.8798ZM288 56.9992H280.692V55.2072H282.204V55.1372C282.008 55.0905 281.821 55.0205 281.644 54.9272C281.457 54.8245 281.294 54.6938 281.154 54.5352C281.014 54.3765 280.902 54.1898 280.818 53.9752C280.734 53.7512 280.692 53.4945 280.692 53.2052V52.8132H282.386V53.3732C282.386 53.9798 282.475 54.4372 282.652 54.7452C282.829 55.0532 283.119 55.2072 283.52 55.2072H288V56.9992ZM283.632 48.5305C282.96 48.5305 282.311 48.4698 281.686 48.3485C281.061 48.2178 280.482 48.0451 279.95 47.8305C279.409 47.6065 278.919 47.3451 278.48 47.0465C278.041 46.7478 277.668 46.4211 277.36 46.0665V44.3725C277.715 44.7551 278.107 45.1005 278.536 45.4085C278.965 45.7071 279.427 45.9638 279.922 46.1785C280.407 46.3931 280.921 46.5611 281.462 46.6825C282.003 46.7945 282.559 46.8505 283.128 46.8505H284.164C284.743 46.8505 285.307 46.7945 285.858 46.6825C286.399 46.5611 286.917 46.3931 287.412 46.1785C287.897 45.9545 288.355 45.6931 288.784 45.3945C289.213 45.0865 289.596 44.7458 289.932 44.3725V46.0665C289.643 46.4118 289.279 46.7338 288.84 47.0325C288.401 47.3311 287.911 47.5925 287.37 47.8165C286.819 48.0405 286.231 48.2178 285.606 48.3485C284.971 48.4698 284.313 48.5305 283.632 48.5305ZM290.492 37.0657V38.4237C290.492 39.0677 290.333 39.5437 290.016 39.8517C289.708 40.1503 289.269 40.2997 288.7 40.2997H288.112C287.953 41.3637 287.449 42.213 286.6 42.8477C285.751 43.473 284.589 43.7857 283.114 43.7857C282.293 43.7857 281.569 43.683 280.944 43.4777C280.309 43.2723 279.777 42.9877 279.348 42.6237C278.919 42.2503 278.597 41.8023 278.382 41.2797C278.167 40.757 278.06 40.1737 278.06 39.5297C278.06 38.8857 278.167 38.3023 278.382 37.7797C278.597 37.257 278.919 36.809 279.348 36.4357C279.777 36.0623 280.309 35.7777 280.944 35.5817C281.569 35.3763 282.293 35.2737 283.114 35.2737C284.561 35.2737 285.699 35.5677 286.53 36.1557C287.361 36.7437 287.874 37.5463 288.07 38.5637H288.98V37.0657H290.492ZM286.53 39.5297C286.53 38.8297 286.297 38.2743 285.83 37.8637C285.363 37.4437 284.71 37.2337 283.87 37.2337H282.358C281.518 37.2337 280.865 37.4437 280.398 37.8637C279.931 38.2743 279.698 38.8297 279.698 39.5297C279.698 40.2297 279.931 40.7897 280.398 41.2097C280.865 41.6203 281.518 41.8257 282.358 41.8257H283.87C284.71 41.8257 285.363 41.6203 285.83 41.2097C286.297 40.7897 286.53 40.2297 286.53 39.5297ZM283.632 30.5289C284.313 30.5289 284.971 30.5942 285.606 30.7249C286.231 30.8462 286.819 31.0189 287.37 31.2429C287.911 31.4669 288.401 31.7282 288.84 32.0269C289.279 32.3255 289.643 32.6475 289.932 32.9929V34.6869C289.596 34.3135 289.213 33.9775 288.784 33.6789C288.355 33.3709 287.897 33.1095 287.412 32.8949C286.917 32.6709 286.399 32.5029 285.858 32.3909C285.307 32.2695 284.743 32.2089 284.164 32.2089H283.128C282.559 32.2089 282.003 32.2695 281.462 32.3909C280.921 32.5029 280.407 32.6662 279.922 32.8809C279.427 33.0955 278.965 33.3569 278.536 33.6649C278.107 33.9635 277.715 34.3042 277.36 34.6869V32.9929C277.668 32.6382 278.041 32.3115 278.48 32.0129C278.919 31.7142 279.409 31.4575 279.95 31.2429C280.482 31.0189 281.061 30.8462 281.686 30.7249C282.311 30.5942 282.96 30.5289 283.632 30.5289Z" fill="black"/>
<path d="M82.5 135.852H78.4609V134.664H82.5V135.852ZM84.9531 135.68C84.9531 136.789 84.7656 137.758 84.3906 138.586C84.0208 139.414 83.4922 140.049 82.8047 140.492C82.1172 140.935 81.3125 141.156 80.3906 141.156C79.4948 141.156 78.7005 140.938 78.0078 140.5C77.3151 140.057 76.776 139.43 76.3906 138.617C76.0104 137.799 75.8151 136.854 75.8047 135.781V134.961C75.8047 133.867 75.9948 132.901 76.375 132.062C76.7552 131.224 77.2917 130.583 77.9844 130.141C78.6823 129.693 79.4792 129.469 80.375 129.469C81.2865 129.469 82.0859 129.688 82.7734 130.125C83.4609 130.562 83.9922 131.193 84.3672 132.016C84.7474 132.833 84.9427 133.781 84.9531 134.859V135.68ZM83.4609 134.945C83.4609 133.596 83.1901 132.562 82.6484 131.844C82.1068 131.12 81.349 130.758 80.375 130.758C79.4271 130.758 78.6797 131.12 78.1328 131.844C77.5911 132.562 77.3125 133.562 77.2969 134.844V135.68C77.2969 136.982 77.5677 138.008 78.1094 138.758C78.6562 139.508 79.4167 139.883 80.3906 139.883C81.3594 139.883 82.1094 139.531 82.6406 138.828C83.1719 138.12 83.4453 137.107 83.4609 135.789V134.945Z" fill="black"/>
<path d="M62 126C68.5 130 72.5 141 70.5 149" stroke="black" stroke-width="2"/>
</svg>
